<svg height="24" viewBox="0 0 511.99996 511" width="24" xmlns="http://www.w3.org/2000/svg"><path d="m67.492188 23.773438s41.890624-23.273438 188.507812-23.273438 188.507812 23.273438 188.507812 23.273438 20.945313 19.039062 20.945313 209.453124c0 190.414063-20.945313 209.453126-20.945313 209.453126s-41.890624 23.273437-188.507812 23.273437-188.507812-23.273437-188.507812-23.273437-20.945313-40.199219-20.945313-209.453126c0-169.257812 20.945313-209.453124 20.945313-209.453124zm0 0" fill="#97623f"/><path d="m349.089844 175.042969c0 6.429687-5.210938 11.636719-11.636719 11.636719s-11.636719-5.207032-11.636719-11.636719c0-6.425781 5.210938-11.632813 11.636719-11.632813s11.636719 5.207032 11.636719 11.632813zm0 0" fill="#764126"/><path d="m405.871094 121.117188c-.480469 0-.964844.011718-1.449219.03125-19.265625.789062-34.242187 17.042968-33.453125 36.308593.925781 22.585938 1.394531 48.078125 1.394531 75.769531 0 39.507813-.949219 74.15625-2.8125 102.988282-.046875.726562-.074219 1.449218-.074219 2.164062-.09375.710938-.167968 1.429688-.214843 2.15625-.699219 10.027344-1.457031 18.578125-2.222657 25.839844-2.085937.296875-4.273437.589844-6.554687.882812-19.121094 2.441407-32.648437 19.921876-30.207031 39.046876s19.925781 32.652343 39.046875 30.210937c13.757812-1.671875 27.414062-4.054687 40.921875-7.140625.066406-.015625.132812-.03125.195312-.046875l.023438-.007813.082031-.015624.039063-.011719.007812-.003907.089844-.019531.046875-.011719h.011719l.03125-.007812c.046874-.011719.09375-.023438.136718-.035156h.011719l.007813-.003906.222656-.050782.011718-.003906.039063-.007812.007813-.003907.039062-.007812.007812-.003907c7.390626-1.769531 12.695313-3.386718 16.242188-4.601562l-.160156-.457031.160156.457031-.160156-.457031.277344.089843.007812-.019531.007812-.03125.003907-.003906.007812-.019531v-.003906l.007813-.023438.015625-.050781.011719-.035157v-.003906l.011718-.03125.007813-.03125.003906-.007812.003906-.019532c1.589844-4.976562 3.886719-14.039062 6.183594-29.574218l.003906-.015625.007813-.054688.003906-.011719c.007812-.0625.015625-.125.023438-.183593l.003906-.007813.003906-.046875.011719-.070312.003906-.03125.007813-.039063c.011718-.078125.019531-.152344.03125-.230468l.003906-.011719.019531-.144531.003906-.035157c.035157-.214843.0625-.429687.097657-.644531v-.003906c1.707031-11.859375 3.402343-27.335938 4.792968-47.414063.054688-.777343.082032-1.554687.085938-2.324219.097656-.738281.171875-1.484374.222656-2.238281 1.394531-21.546875 2.441406-48.125 2.816406-80.832031v-.007812c.003906-.589844.011719-1.167969.015625-1.761719l.003907-.011719c.003906-.476562.007812-.945312.011718-1.425781.003906-.238281.003906-.472657.007813-.710938v-.011719c.003906-.238281.003906-.464843.007812-.707031v-.019531c.003907-.59375.011719-1.191406.015625-1.785156v-.210938c.003906-.054687.003906-.105468.003906-.160156v-.023438c0-.105468 0-.207031 0-.3125v-.035156l.003907-.164062v-.035156c0-.164063 0-.332032.003906-.5v-.210938c.003906-.160156.003906-.316406.003906-.476562 0-.035157 0-.070313 0-.109376.003907-.472656.007813-.945312.011719-1.417968v-.007813l.007812-1.265625v-.042968l.003907-.128907c0-.039062 0-.078125 0-.117187 0-.085938 0-.179688 0-.265625v-.179688l.003906-.046875v-.214844c0-.085937 0-.15625 0-.242187v-.097656c.003906-.039063.003906-.089844.003906-.128907v-.265624c0-.105469 0-.207032.003907-.316407v-.234375c0-.164062 0-.332031.003906-.496094v-.445312c0-.050781 0-.09375.003906-.144531v-.226563c0-.046875 0-.09375 0-.140625v-.007812c0-.109375 0-.222657 0-.332031l.003906-.042969v-.671875l.003906-.09375v-.214844c0-.0625 0-.132812 0-.195312 0-.046876 0-.097657 0-.144532 0-.03125 0-.078125 0-.109375l.003907-.09375v-.210937c0-.078125 0-.140625 0-.21875v-.324219l.003906-.15625v-.019531l.003906-1.046875c0-.035157 0-.070313 0-.105469 0-.050781 0-.09375 0-.140625v-.394531c0-.039063 0-.085938 0-.125v-.285156c.003907-.113282.003907-.214844.003907-.328126v-.152343c0-.039063 0-.082031 0-.121094v-.371094c0-.058593 0-.121093 0-.179687v-.074219c0-.054687 0-.109375 0-.160156l.003906-.09375v-.1875c0-.046875 0-.089844 0-.136719v-.347656c0-.066406 0-.117188 0-.179688 0-.039062 0-.085937 0-.128906 0-.039062 0-.074219 0-.113281v-.117188c0-.03125 0-.074219 0-.105469v-.144531c0-.042969 0-.082031.003906-.121093v-.496094c0-.160156 0-.316406 0-.472656v-.855469c0-.242188 0-.480469 0-.722657v-.074218c0-.15625 0-.3125 0-.46875v-1.472656c0-.039063 0-.078126 0-.117188v-1.027344c0-.066406 0-.109375 0-.175781v-.265625c0-.035156 0-.070312 0-.109375v-.132813c0-.097656 0-.191406 0-.289062 0-.050781 0-.101562 0-.152344v-.230468c0-.035157 0-.070313 0-.105469v-.097657l-.003906-.097656v-.347656c0-.246094 0-.496094 0-.742188v-.039062c0-.117188 0-.230469 0-.351562v-.230469c-.003906-.046875-.003906-.101563-.003906-.148438v-.214843c0-.039063 0-.09375 0-.132813v-.265625c0-.03125 0-.074219 0-.105469v-.164062c0-.035157 0-.070313 0-.105469v-.003906c0-.054688 0-.113282 0-.167969l-.003907-.035156v-.5625c0-.046875 0-.085938 0-.132813v-.410156l-.003906-.144531v-.046875c0-.054688 0-.101563 0-.15625v-.214844c0-.046875 0-.113281 0-.160156v-.1875l-.003906-.019532v-.378906c0-.0625 0-.113281 0-.175781v-.25l-.003907-.113281v-.417969c0-.046875 0-.097656 0-.144531v-.046875l-.003906-.152344v-.238281c0-.046875 0-.09375 0-.140625v-.003907l-.003906-.539062v-.03125c0-.125 0-.230469 0-.355469v-.0625l-.003906-.117187c0-.101563 0-.199219 0-.300782v-.222656l-.003906-.089844v-.257812c0-.042969 0-.082031 0-.125v-.203125c-.003907-.046875-.003907-.09375-.003907-.140625v-.40625c0-.105469-.003906-.207031-.003906-.3125v-.335938l-.003906-.15625v-.214843c0-.035157 0-.070313 0-.109375v-.039063c0-.046875 0-.09375 0-.144531l-.003907-.019531c0-.097657 0-.195313 0-.289063 0-.039062 0-.09375 0-.132812v-.0625l-.003906-.085938v-.3125c0-.078125 0-.152344-.003906-.230468v-.40625c0-.039063 0-.078126-.003906-.117188v-.238281c0-.039063 0-.078125 0-.117188v-.066406l-.003906-.304687v-.011719c0-.109375 0-.21875-.003907-.328125v-.003906c-.167969-23.070313-.664062-43.238282-1.386719-60.863282-.761718-18.695312-16.136718-33.464844-34.855468-33.480468zm0 0" fill="#c28d5f"/><path d="m418.90625 151.773438c0 6.425781-5.207031 11.636718-11.636719 11.636718-6.425781 0-11.636719-5.210937-11.636719-11.636718 0-6.425782 5.210938-11.636719 11.636719-11.636719 6.429688 0 11.636719 5.210937 11.636719 11.636719zm0 0" fill="#a77554"/><path d="m442.179688 291.40625c0 6.429688-5.210938 11.636719-11.636719 11.636719s-11.636719-5.207031-11.636719-11.636719c0-6.425781 5.210938-11.632812 11.636719-11.632812s11.636719 5.207031 11.636719 11.632812zm0 0" fill="#a77554"/><path d="m395.632812 407.769531c0 6.429688-5.207031 11.636719-11.632812 11.636719-6.429688 0-11.636719-5.207031-11.636719-11.636719 0-6.425781 5.207031-11.632812 11.636719-11.632812 6.425781 0 11.632812 5.207031 11.632812 11.632812zm0 0" fill="#a77554"/><path d="m442.179688 407.769531c0 6.429688-5.210938 11.636719-11.636719 11.636719s-11.636719-5.207031-11.636719-11.636719c0-6.425781 5.210938-11.632812 11.636719-11.632812s11.636719 5.207031 11.636719 11.632812zm0 0" fill="#a77554"/><path d="m208.640625 47.941406c-.152344 0-.3125 0-.46875.007813-6.503906.257812-12.742187.5625-18.707031.917969-.167969.007812-.332032.015624-.496094.027343l-.097656.007813h-.023438l-.117187.007812-.164063.007813-.070312.003906-.082032.007813-.0625.003906c-.039062 0-.070312.003906-.113281.003906l-.042969.003906-.117187.007813h-.039063l-.472656.03125h-.03125l-.125.007812-.035156.003907c-.101562.003906-.199219.011718-.300781.015624l-.007813.003907c-14.878906.914062-28.078125 2.09375-39.757812 3.433593-.253906.027344-.507813.054688-.761719.085938h-.003906l-.113281.015625h-.027344l-.085938.011719-.046875.003906-.09375.011719-.015625.003906-.097656.011719-.246094.027344-.089844.011718-.050781.003906-.082031.011719h-.019531l-.09375.011719-.023438.003906c-.035156.003906-.066406.007813-.097656.011719h-.003906c-1.507813.175781-2.988281.355469-4.445313.539063-.210937.027343-.417968.058593-.621094.09375-.199218.015624-.398437.035156-.601562.0625-.460938.058593-.921875.117187-1.378906.175781-6.371094.863281-10.832032 6.722656-9.972656 13.089843.78125 5.773438 5.707031 10.078126 11.53125 10.078126.5 0 1-.03125 1.496093-.097657l1.230469-.15625c.199219-.027343.398438-.058593.597656-.09375.203125-.015625.40625-.035156.609375-.058593 19.457031-2.4375 41.421875-4.15625 65.292969-5.101563 6.421875-.253906 11.421875-5.664063 11.167969-12.085937-.25-6.242188-5.375-11.171876-11.621094-11.175782zm139.375 2.851563c-6.429687.011719-11.628906 5.234375-11.613281 11.660156.011718 6.007813 4.59375 11.019531 10.578125 11.566406l1.222656.113281c.207031.019532.414063.03125.621094.039063.203125.03125.414062.054687.625.078125 24.816406 2.355469 46.085937 5.695312 63.214843 9.933594 6.238282 1.542968 12.546876-2.265625 14.089844-8.503906 1.542969-6.238282-2.265625-12.546876-8.503906-14.089844-3.585938-.886719-7.59375-1.796875-12.050781-2.710938l-.019531-.003906-.09375-.019531h-.003907l-.097656-.023438-.019531-.003906-.085938-.015625-.019531-.003906-.074219-.015625-.03125-.007813c-.066406-.011718-.132812-.027344-.199218-.039062l-.011719-.003906-.101563-.019532c-.101562-.019531-.203125-.039062-.304687-.0625l-.117188-.023437h-.011719c-.070312-.015625-.132812-.027344-.203124-.042969l-.042969-.007812-.050781-.007813-.054688-.011719-.046875-.011718-.042969-.007813-.050781-.007813-.117187-.027343h-.015626l-.167968-.035157-.253906-.050781h-.007813l-.070313-.015625-.027343-.003906-.324219-.066406h-.007812c-13.3125-2.621094-30.375-5.222656-51.921876-7.265625-.199218-.015625-.398437-.03125-.597656-.039063-.210937-.03125-.425781-.054687-.644531-.074218-.417969-.039063-.839844-.078126-1.261719-.117188-.363281-.035156-.726562-.050781-1.082031-.050781zm-92.015625-3.746094h-.1875c-.367188 0-.734375 0-1.101562 0-6.429688.007813-11.628907 5.226563-11.621094 11.652344.011718 6.421875 5.214844 11.617187 11.636718 11.621093h.003907l1.269531-.003906c15.886719 0 31.28125.285156 45.757812.84375.152344.003906.304688.007813.453126.007813 6.429687-.003907 11.632812-5.21875 11.628906-11.644531-.003906-6.25-4.941406-11.378907-11.1875-11.621094-12.4375-.476563-25.894532-.757813-40.363282-.84375h-.027343c-.496094 0-.992188-.003906-1.492188-.003906h-.058593c-.117188 0-.234376 0-.351563-.003907h-.246094c-.042969 0-.085937 0-.128906 0h-.085937c-.042969 0-.082032 0-.128907 0h-.261719c-.046874 0-.09375 0-.144531 0l-.089843-.003906h-.304688c-.035156 0-.070312 0-.105469 0h-.164062c-.085938 0-.167969 0-.25 0h-.808594c-.035156 0-.070313 0-.105469-.003906h-.296875c-.035156 0-.085937 0-.121093 0h-.289063c-.042969 0-.097656 0-.140625 0zm0 0" fill="#a77554"/><path d="m75.367188 80.15625c-11.890626.015625-21.859376 8.992188-23.113282 20.816406-2.871094 27.71875-5.136718 64.546875-5.617187 112.996094v.015625c-.011719 1.238281-.023438 2.476563-.03125 3.730469v.035156c0 .136719-.003907.296875-.003907.433594v.039062c0 .148438-.003906.296875-.003906.445313v.023437c-.003906.316406-.003906.609375-.007812.925782v.027343l-.003906.457031v.011719c0 .316407-.003907.621094-.003907.941407v.253906c-.003906.078125-.003906.148437-.003906.226562v.011719.214844.027343.199219.035157c-.003906.082031-.003906.148437-.003906.230468v.003906.476563l-.003907.207031v.535156l-.003906.453126v.523437l-.003906.179687v.046876.191406.070312c0 .140625 0 .273438-.003906.414063v.289062.207031.28125l-.003906.207032v.042968.207032.015625.226562.269531l-.003907.199219v.777344.179687.070313l-.003906.207031v.28125.207032.289062.210938.011718.21875.03125c0 .082032-.003906.148438-.003906.230469v.015625.203125.058594.441406.046875.214844.308594.140624 3.613282.109375.277343.101563.148437.253907.070312.203125.0625.183594l.003906.117188v.144531.355469.1875.085937.144531.121094.164062.089844.226563l.003906.027343v.269532.011718.238282.117187.140625.09375l.003907.175782v.859374c0 .078126.003906.152344.003906.226563v.03125c0 .351563 0 .699219.003906 1.046875v.070312.1875.242188l.003906.109375v.175781.066406.183594.082032c0 .066406 0 .132812.003906.199218v.050782l.003907 1.308593v.039063c.003906.074218.003906.15625.003906.230468v.015626.238281.035156c0 .167969.003906.335937.003906.503906v.015625l.007813 1.042969v.035156c.117187 18.285157.488281 34.96875 1.050781 50.175781.007813.210938.019531.421876.03125.632813.003906.1875.007813.378906.011719.566406 2.722656 71.890625 9.730468 110.523438 14.636718 129.4375 3.261719 12.433594 15.984376 19.867188 28.414063 16.605469 12.40625-3.253906 19.839844-15.929688 16.625-28.347656-3.78125-14.59375-10.515625-49.511719-13.160156-119.382813-.007813-.203125-.019531-.410156-.03125-.613281 0-.207031-.007813-.414062-.015625-.617188-.703125-19.066406-1.0625-39.726562-1.0625-61.410156 0-49.578125 1.835937-92.441406 5.457031-127.394531 1.3125-12.796875-7.996094-24.234375-20.789063-25.550781-.796874-.078125-1.59375-.121094-2.390624-.121094zm0 0" fill="#69341c"/><path d="m67.492188 442.679688s-20.945313 23.273437-44.21875 23.273437c-23.273438 0-23.273438-23.273437-23.273438-23.273437s0-23.273438 23.273438-23.273438h46.542968zm0 0" fill="#69341c"/><path d="m444.507812 442.679688s20.945313 23.273437 44.21875 23.273437c23.269532 0 23.269532-23.273437 23.269532-23.273437s0-23.273438-23.269532-23.273438h-46.546874zm0 0" fill="#97623f"/><path d="m67.492188 23.773438s-20.945313-23.273438-44.21875-23.273438c-23.273438 0-23.273438 23.273438-23.273438 23.273438s0 23.273437 23.273438 23.273437h46.542968zm0 0" fill="#97623f"/><path d="m444.507812 23.773438s20.945313-23.273438 44.21875-23.273438c23.269532 0 23.269532 23.273438 23.269532 23.273438s0 23.273437-23.269532 23.273437h-46.546874zm0 0" fill="#97623f"/><path d="m256 23.773438h-.65625c-.054688 0-.101562 0-.15625 0h-.730469c-.027343 0-.070312 0-.097656 0h-.105469c-.046875 0-.078125 0-.125 0h-.0625c-.0625 0-.125 0-.1875 0h-.191406l-.089844.003906h-.210937c-.042969 0-.089844 0-.136719 0h-.035156c-.070313 0-.128906 0-.199219 0h-.050781c-.042969 0-.109375 0-.152344 0h-.070312c-.035157 0-.074219 0-.109376 0h-.382812c-.035156.003906-.070312.003906-.105469.003906h-.265625c-.042968 0-.070312 0-.113281 0h-.480469c-.125.003906-.253906.003906-.375.003906h-.46875l-.125.003906c-.125 0-.242187 0-.367187 0h-.082031c-.027344 0-.066407 0-.09375 0h-.097657l-.117187.003907h-.050782c-.042968 0-.089843 0-.132812 0h-.359375l-.097656.003906h-.578125l-.175782.003906h-.066406c-.042968 0-.078125 0-.121094 0-.039062 0-.070312 0-.105468 0h-.082032l-.09375.003907h-.199218c-.042969 0-.070313 0-.113282 0h-.074218l-.179688.003906h-.078125c-.042969 0-.078125 0-.121093 0h-.191407l-.074219.003906h-.1875c-.140624 0-.253906 0-.394531.003906h-.441406l-.1875.003906h-.007813l-.394531.003907h-.039062c-.0625 0-.125 0-.183594 0h-.003906l-.199219.003906h-.007812c-.128907 0-.265626 0-.394532 0l-.078125.003906h-.191406c-.035156 0-.078125 0-.113281 0l-.078125.003907c-.050781 0-.109375 0-.160157 0h-.019531c-.066406 0-.128906 0-.199219 0l-.023437.003906h-.210937c-.050782 0-.101563 0-.152344 0l-.054688.003906h-.300781c-.046875 0-.089844.003906-.136719.003906-.050781 0-.089844 0-.140625 0h-.046875l-.144531.003906h-.261719l-.117187.003907h-.074219c-.121094 0-.25 0-.371094.003906h-.066406c-.042969 0-.082031 0-.125 0l-.074219.003906h-.1875l-.136719.003907h-.234374l-.0625.003906c-.042969 0-.082032 0-.125 0h-.074219c-.042969 0-.078125 0-.121094.003906h-.246094c-.136719.003906-.261719.003906-.394531.007812h-.023438c-.050781 0-.097656 0-.148437 0h-.085937l-.101563.003907h-.195313l-.074218.003906c-.058594 0-.121094 0-.183594 0h-.039062l-.140626.003906h-.070312l-.136719.003907h-.195312l-.042969.003906h-.1875l-.183594.003906h-.070312c-.042969 0-.082032 0-.125.003906h-.179688l-.078125.003906h-.183593l-.375.007813h-.191407l-.050781.003906h-.195312l-.101563.003907c-.074219 0-.152344 0-.226563.003906h-.117187l-.105469.003906h-.195312l-.066406.003906h-.1875c-.117188.003906-.25.003906-.367188.007813h-.183594l-.058594.003906h-.191406l-.175781.003906-.191406.003907h-.046875l-.144532.003906h-.054687l-.128906.003906h-.207031l-.03125.003906h-.199219c-.066407.003906-.113281.003906-.179688.003906h-.050781l-.121094.003907-.097656.003906h-.175781l-.089844.003906h-.09375c-.050781 0-.109375.003907-.15625.003907h-.058594l-.125.003906h-.09375l-.105469.003906h-.0625l-.125.003906h-.175781l-.078125.003906h-.019531l-.285156.003907-.027344.003906h-.1875l-.101563.003906h-.078124c-.03125.003907-.066407.003907-.101563.003907h-.058594c-.070312.003906-.140625.003906-.207031.003906l-.074219.003906c-.035156 0-.0625 0-.097656 0l-.078125.003906h-.167969l-.125.003906h-.027343c-.132813.003907-.277344.007813-.410157.007813l-.066406.003906h-.09375l-.09375.003907h-.070313l-.105468.003906h-.09375l-.089844.003906h-.074219l-.171875.003906h-.078125c-.039062 0-.0625 0-.105469.003906h-.089843l-.074219.003907h-.105469l-.09375.003906h-.074219l-.355468.007813-.066406.003906h-.097657l-.109375.003906h-.066406l-.089844.003906h-.117187l-.066407.003906-.171874.003907h-.042969c-.046875 0-.078125 0-.128907.003906h-.074218l-.117188.003906h-.0625l-.113281.003907h-.066406c-.113281.003906-.242188.007812-.355469.007812l-.058594.003906c-.042968 0-.078125 0-.121094 0l-.058593.003906c-.042969 0-.078125 0-.121094 0l-.066406.003907-.144531.003906h-.027344c-.054688 0-.097656 0-.152344.003906h-.078125l-.144531.003907h-.019532l-.152343.003906-.046875.003906-.152344.003906h-.027344c-.191406.003906-.371094.007813-.5625.011719h-.011718l-.167969.007813h-.027344c-.054687 0-.089844 0-.144531.003906h-.050782l-.355468.007812-.035156.003906-.164063.003907h-.007813l-.167968.003906h-.027344c-.183594.003906-.367188.011719-.546875.015625h-.039063l-.132812.003906h-.066406l-.125.003906-.042969.003907c-.125.003906-.242187.003906-.367187.007812-.007813 0 0 0-.007813 0l-.15625.003907-.058594.003906c-.046875 0-.097656 0-.144531.003906h-.023438l-.171874.003906h-.007813c-.121094.003906-.246094.007813-.363281.011719h-.050782l-.128906.003906-.042968.003907c-.046876 0-.097657 0-.144532.003906h-.042968c-.117188.003906-.234376.007812-.351563.011718h-.03125c-.117187.003907-.234375.007813-.351563.007813h-.003906c-.246094.007813-.492187.015625-.734375.023437h-.039062l-.136719.003907-.042969.003906-.132812.003906h-.050781l-.167969.003907-.054688.003906-.113281.003906h-.070312l-.105469.003906-.078125.003906h-.078125l-.097657.003907c-.03125 0-.058593.003906-.089843.003906l-.09375.003906c-.054688 0-.09375 0-.148438.003907h-.050781c-.039062 0-.085938.003906-.121094.003906l-.054687.003906-.132813.003906h-.039062l-.535156.015625-.035157.003907c-.046875 0-.089843 0-.136719.003906h-.046874l-.132813.003906-.046875.003906c-.179688.003906-.359375.007813-.535156.015625h-.011719l-.160156.003907-.027344.003906-.171875.003906h-.003906c-.125.003906-.234375.007812-.359375.011719l-.035157.003906-.148437.003906h-.019531c-.800782.027344-1.582032.054688-2.371094.082031h-.015625l-.160156.007813h-.019531l-.140626.003906-.058593.003907c-.113281.003906-.21875.007812-.332031.011718h-.027344c-.054688.003906-.097656.003906-.152344.007813h-.027344l-.144531.003906-.03125.003906c-.234375.007813-.46875.015625-.703125.023438l-.027344.003906c-.234375.007813-.464844.015625-.699218.027344h-.019532l-.164062.003906-.011719.003906c-.054687 0-.097656.003907-.148437.003907h-.035157c-.054687.003906-.101562.007812-.15625.007812h-.019531c-.050781.003906-.109375.003906-.160156.007812l-.078125.003907h-.078125l-.082032.003906-.09375.003906-.070312.003907-.152344.003906-.167968.007812-.066407.003906-.101562.003907h-.078125l-.082032.003906-.078124.003906-.097657.003907-.074219.003906-.066406.003906-.25.007812-.042968.003907-.136719.003906h-.035157l-.128906.007813h-.046875c-.039062.003906-.074219.003906-.113281.003906l-.0625.003906-.160156.007812-.09375.003907h-.054688l-.09375.003906-.078125.003906-.089843.003907-.054688.003906-.101562.003906h-.074219c-.046875.003906-.101563.007812-.148438.007812l-.089843.003907-.066407.003906-.097656.003906-.066406.003907-.101563.003906h-.070312l-.09375.003906-.0625.003906-.121094.003906-.058594.003907c-.050781.003906-.105468.003906-.15625.007812h-.023437l-.117188.003907-.082031.003906-.097656.003906-.0625.003906-.113282.003906-.042968.003907c-.058594 0-.109375.003906-.167969.003906l-.03125.003906-.125.003907-.066406.003906-.113281.003906-.035157.003906c-.042969 0-.09375.003906-.136719.003906l-.039062.003907c-.101562.003906-.222656.007812-.324219.011719l-.050781.003906-.121094.003906-.042968.003906-.113282.003906-.058594.003907-.152343.007812c-.109375.003907-.226563.007813-.335938.011719l-.046875.003906c-.035156 0-.082031.003906-.117187.003906l-.050781.003907-.136719.007812h-.019531l-.121094.003907-.085938.003906c-.046875.003906-.089844.003906-.132812.007812h-.011719l-.148437.007813h-.039063l-.136719.007812h-.03125l-.128906.007813h-.039062l-.332032.015625-.027344.003906-.136718.003906-.035156.003907-.113282.003906-.070312.003906c-.164063.007812-.320313.015625-.488282.023438h-.007812c-.050781.003906-.089844.003906-.140625.007812h-.046875l-.144531.007812h-.011719c-.164062.007813-.332031.015626-.5.023438l-.039062.003906-.128907.007813h-.027343l-.15625.007812c-.007813 0 0 0-.007813 0l-.339844.015625c-1.140625.058594-2.269531.117188-3.390625.175782h-.035156l-.640625.035156-.042969.003906c-1.507812.082031-2.992187.164062-4.46875.25h-.019531l-.136719.011719h-.03125c-1.53125.089843-3.046875.183593-4.542968.277343l-.003907.003907c-.164062.007812-.320312.019531-.480469.027343l-.007812.003907-.132812.007812h-.039063c-69.453125 4.5-101.546875 14.839844-112.292969 19.167969-2.253906.90625-4.167968 2.496094-5.46875 4.550781-.464844 1.199219-1.058594 2.847657-1.75 5.019531-.679687 6.386719 3.949219 12.117188 10.339844 12.792969 1.894531.203125 3.808594-.066406 5.578125-.777343 11.441406-4.605469 57.910156-19.628907 175.453125-19.628907 27.246094 0 52.703125.828125 75.664062 2.460938.210938.015625.417969.023437.625.027343.207032.027344.414063.046876.621094.0625 52.742188 3.832032 80.867188 11.074219 92.941406 15.054688 6.105469 2.007812 12.683594-1.308594 14.691407-7.414062 2.007812-6.09375-1.296875-12.664063-7.386719-14.683594-13.378906-4.410156-39.839844-11.054688-85.839844-15.144532h-.023437l-.128907-.011718-.003906-.003906c-1.871094-.164063-3.765625-.324219-5.703125-.480469l-.007812-.003907c-.199219-.015624-.390625-.03125-.589844-.046874h-.007813l-.285156-.023438h-.019531c-.042969-.003906-.074219-.007812-.117187-.011719l-.042969-.003906-.089844-.003906-.066406-.007813-.101563-.007812-.039062-.003906-.117188-.007813-.027344-.003906-.128906-.007813-.019531-.003906-.125-.007812-.035156-.003907-.117188-.007812-.039062-.003907-.097657-.007812-.070312-.003906-.074219-.007813-.089843-.007812-.054688-.003907-.09375-.003906-.066406-.007812-.089844-.007813-.054688-.003906-.101562-.007813-.058594-.003906-.085937-.007812-.0625-.003906-.09375-.007813-.0625-.003906-.101563-.007813-.042968-.003906-.113282-.007812-.042968-.003907-.132813-.007812-.011719-.003907-.117187-.007812-.054688-.003906-.089843-.007813-.058594-.003906-.097656-.007813-.058594-.003906-.089844-.007812-.0625-.003906-.082031-.007813-.082031-.003906-.085938-.007813-.058594-.003906-.101562-.007812-.054688-.003907-.277344-.019531-.03125-.003906-.132812-.007813-.019531-.003906-.097657-.003906-.066406-.007813-.066406-.003906-.085938-.007812h-.046874c-.148438-.011719-.296876-.023438-.445313-.035157l-.289063-.019531-.019531-.003906c-.09375-.003906-.195312-.011719-.289062-.019532l-.046875-.003906-.113282-.007812-.054687-.003906c-.027344-.003907-.0625-.003907-.09375-.007813h-.015625c-.214844-.015625-.429688-.027344-.640625-.03125-.203125-.023437-.40625-.042969-.613281-.058594-14.898438-1.0625-31.605469-1.851562-50.28125-2.246093-.261719-.003907-.515625-.007813-.777344-.015626h-.015625c-.914063-.019531-1.824219-.035156-2.746094-.050781h-.003906c-.265625-.007812-.523437-.011719-.789063-.015625h-.003906c-.863281-.015625-1.722656-.027344-2.589844-.042968h-.007812c-.058594 0-.113281 0-.171875-.003907h-.042969l-.78125-.011719h-.007812c-.265625-.003906-.523438-.007812-.792969-.011718h-.019531c-.335938-.003906-.660156-.007813-.996094-.011719h-.007812c-.066407 0-.128907-.003906-.199219-.003906-.472657-.003907-.941407-.011719-1.414063-.015625h-.027344l-.160156-.003906h-.046875c-.050781 0-.109375 0-.160156-.003907h-.03125c-.136719 0-.257813 0-.394531-.003906h-.015625c-.050781 0-.121094 0-.171875 0h-.046875c-.050781-.003906-.105469-.003906-.15625-.003906h-.035157c-.058593 0-.109374 0-.171874-.003907h-.027344c-.136719 0-.253906 0-.390625-.003906h-.035157c-.050781 0-.109374 0-.160156 0h-.042968c-.042969-.003906-.089844-.003906-.136719-.003906h-.070313c-.050781 0-.097656 0-.148437 0h-.035157l-.199218-.003906h-.015625c-.058594 0-.121094 0-.179688 0l-.035156-.003906c-.050781 0-.101563 0-.15625 0h-.050781l-.585938-.003907-.03125-.003906h-.207031c-.265625-.003906-.535156-.003906-.800781-.007813h-.21875c-.0625 0-.125 0-.183594-.003906h-.019531c-.132813 0-.265625 0-.394531 0l-.054688-.003906c-.050781 0-.089844 0-.140625 0h-.242187c-.140626 0-.261719-.003906-.402344-.003906h-.25l-.148438-.003906h-.234375c-.070312 0-.136719 0-.207031 0h-.007812l-.195313-.003907h-.445313c-.042968 0-.105468 0-.148437 0l-.046875-.003906h-.582031l-.070313-.003906h-.558594l-.113281-.003907h-.375c-.132812 0-.257812 0-.390625 0l-.039062-.003906h-.601563c-.070312 0-.132812-.003906-.203125-.003906h-.460937c-.054688 0-.09375 0-.144531 0h-.050782c-.050781 0-.125 0-.179687 0h-.019531l-.191407-.003906h-.28125c-.046875 0-.082031 0-.128906 0h-.050781c-.0625 0-.121094 0-.183594 0h-.015625c-.132813 0-.253906 0-.390625 0h-.269531c-.050781-.003906-.101563-.003906-.152344-.003906h-.046875c-.132812 0-.257812 0-.394531 0h-.09375c-.027344 0-.074219 0-.101563 0h-.730468c-.046876 0-.101563 0-.144532 0zm0 0" fill="#69341c"/><path d="m186.179688 58.683594c0 6.425781-5.207032 11.632812-11.636719 11.632812-6.425781 0-11.632813-5.207031-11.632813-11.632812 0-6.429688 5.207032-11.636719 11.632813-11.636719 6.429687 0 11.636719 5.207031 11.636719 11.636719zm0 0" fill="#c28d5f"/><path d="m279.269531 58.683594c0 6.425781-5.207031 11.632812-11.632812 11.632812-6.429688 0-11.636719-5.207031-11.636719-11.632812 0-6.429688 5.207031-11.636719 11.636719-11.636719 6.425781 0 11.632812 5.207031 11.632812 11.636719zm0 0" fill="#c28d5f"/><path d="m302.542969 105.226562c0 6.425782-5.207031 11.636719-11.636719 11.636719-6.425781 0-11.632812-5.210937-11.632812-11.636719 0-6.425781 5.207031-11.636718 11.632812-11.636718 6.429688 0 11.636719 5.210937 11.636719 11.636718zm0 0" fill="#764126"/><path d="m442.179688 58.683594c0 6.425781-5.210938 11.632812-11.636719 11.632812s-11.636719-5.207031-11.636719-11.632812c0-6.429688 5.210938-11.636719 11.636719-11.636719s11.636719 5.207031 11.636719 11.636719zm0 0" fill="#4d2100"/><g fill="#764126"><path d="m302.542969 12.136719c0 6.425781-5.207031 11.636719-11.636719 11.636719-6.425781 0-11.632812-5.210938-11.632812-11.636719s5.207031-11.636719 11.632812-11.636719c6.429688 0 11.636719 5.210938 11.636719 11.636719zm0 0"/><path d="m139.636719 105.226562c0 6.425782-5.210938 11.636719-11.636719 11.636719s-11.636719-5.210937-11.636719-11.636719c0-6.425781 5.210938-11.636718 11.636719-11.636718s11.636719 5.210937 11.636719 11.636718zm0 0"/><path d="m162.90625 128.5c0 6.425781-5.207031 11.636719-11.632812 11.636719-6.429688 0-11.636719-5.210938-11.636719-11.636719s5.207031-11.636719 11.636719-11.636719c6.425781 0 11.632812 5.210938 11.632812 11.636719zm0 0"/><path d="m209.453125 105.226562c0 6.425782-5.210937 11.636719-11.636719 11.636719-6.425781 0-11.636718-5.210937-11.636718-11.636719 0-6.425781 5.210937-11.636718 11.636718-11.636718 6.425782 0 11.636719 5.210937 11.636719 11.636718zm0 0"/><path d="m232.726562 198.316406c0 6.425782-5.210937 11.636719-11.636718 11.636719-6.425782 0-11.636719-5.210937-11.636719-11.636719 0-6.425781 5.210937-11.636718 11.636719-11.636718 6.425781 0 11.636718 5.210937 11.636718 11.636718zm0 0"/><path d="m279.269531 151.773438c0 6.425781-5.207031 11.636718-11.632812 11.636718-6.429688 0-11.636719-5.210937-11.636719-11.636718 0-6.425782 5.207031-11.636719 11.636719-11.636719 6.425781 0 11.632812 5.210937 11.632812 11.636719zm0 0"/><path d="m186.179688 175.042969c0 6.429687-5.207032 11.636719-11.636719 11.636719-6.425781 0-11.632813-5.207032-11.632813-11.636719 0-6.425781 5.207032-11.632813 11.632813-11.632813 6.429687 0 11.636719 5.207032 11.636719 11.632813zm0 0"/><path d="m186.179688 221.589844c0 6.425781-5.207032 11.636718-11.636719 11.636718-6.425781 0-11.632813-5.210937-11.632813-11.636718 0-6.425782 5.207032-11.636719 11.632813-11.636719 6.429687 0 11.636719 5.210937 11.636719 11.636719zm0 0"/><path d="m139.636719 198.316406c0 6.425782-5.210938 11.636719-11.636719 11.636719s-11.636719-5.210937-11.636719-11.636719c0-6.425781 5.210938-11.636718 11.636719-11.636718s11.636719 5.210937 11.636719 11.636718zm0 0"/></g><path d="m69.816406 244.863281c0 6.425781-5.207031 11.636719-11.632812 11.636719-6.429688 0-11.636719-5.210938-11.636719-11.636719s5.207031-11.636719 11.636719-11.636719c6.425781 0 11.632812 5.210938 11.632812 11.636719zm0 0" fill="#4d2100"/><path d="m139.636719 291.40625c0 6.429688-5.210938 11.636719-11.636719 11.636719s-11.636719-5.207031-11.636719-11.636719c0-6.425781 5.210938-11.632812 11.636719-11.632812s11.636719 5.207031 11.636719 11.632812zm0 0" fill="#764126"/><path d="m93.089844 384.5c0 6.425781-5.210938 11.632812-11.636719 11.632812s-11.636719-5.207031-11.636719-11.632812c0-6.429688 5.210938-11.636719 11.636719-11.636719s11.636719 5.207031 11.636719 11.636719zm0 0" fill="#4d2100"/><path d="m93.089844 314.679688c0 6.425781-5.210938 11.636718-11.636719 11.636718s-11.636719-5.210937-11.636719-11.636718c0-6.425782 5.210938-11.636719 11.636719-11.636719s11.636719 5.210937 11.636719 11.636719zm0 0" fill="#4d2100"/><path d="m139.636719 361.226562c0 6.425782-5.210938 11.636719-11.636719 11.636719s-11.636719-5.210937-11.636719-11.636719c0-6.425781 5.210938-11.636718 11.636719-11.636718s11.636719 5.210937 11.636719 11.636718zm0 0" fill="#764126"/><path d="m93.089844 175.042969c0 6.429687-5.210938 11.636719-11.636719 11.636719s-11.636719-5.207032-11.636719-11.636719c0-6.425781 5.210938-11.632813 11.636719-11.632813s11.636719 5.207032 11.636719 11.632813zm0 0" fill="#4d2100"/><path d="m256 128.5c0 6.425781-5.210938 11.636719-11.636719 11.636719s-11.636719-5.210938-11.636719-11.636719 5.210938-11.636719 11.636719-11.636719 11.636719 5.210938 11.636719 11.636719zm0 0" fill="#764126"/><path d="m349.089844 105.226562c0 6.425782-5.210938 11.636719-11.636719 11.636719s-11.636719-5.210937-11.636719-11.636719c0-6.425781 5.210938-11.636718 11.636719-11.636718s11.636719 5.210937 11.636719 11.636718zm0 0" fill="#764126"/><path d="m139.636719 35.410156c0 6.425782-5.210938 11.636719-11.636719 11.636719s-11.636719-5.210937-11.636719-11.636719c0-6.425781 5.210938-11.636718 11.636719-11.636718s11.636719 5.210937 11.636719 11.636718zm0 0" fill="#4d2100"/><path d="m166.605469 431.359375c10.8125 15.09375 28.339843 15.09375 39.152343 0l10.511719-14.675781c10.539063-14.707032 16.457031-34.65625 16.457031-55.457032 0-20.800781-5.917968-40.75-16.457031-55.460937l-10.511719-14.675781c-10.8125-15.089844-28.339843-15.089844-39.152343 0l-10.511719 14.675781c-10.539062 14.710937-16.457031 34.660156-16.457031 55.460937 0 20.800782 5.917969 40.75 16.457031 55.457032zm0 0" fill="#ffd432"/><path d="m186.179688 279.773438h-.402344l-.015625.003906h-.121094l-.039063.003906h-.082031l-.019531.003906h-.097656l-.023438.003906h-.082031l-.011719.003907h-.078125l-.03125.003906h-.003906c-.0625.003906-.125.007813-.1875.007813l-.03125.003906h-.007813l-.035156.003906h-.042968l-.035157.003906h-.039062l-.003907.003906h-.035156c-2.789062.210938-5.503906.976563-7.996094 2.246094l-.035156.019532-.035156.015624-.007812.003907-.023438.015625-.015625.003906-.023437.011719-.019532.011719-.039062.019531-.011719.007812-.039063.019531c-.035156.019532-.074218.039063-.113281.058594l-.003906.003906-.035156.015626-.007813.003906-.03125.019531-.078125.039063-.007812.007812-.035157.015625-.003906.003906-.035156.019531h-.003906l-.035156.019532-.003907.003906-.035156.019531-.007813.003907-.035156.015624c-.085937.050782-.175781.101563-.265625.148438l-.007812.007812-.035157.015626-.003906.003906-.035156.019531-.007812.003906-.03125.019531-.007813.003907-.03125.019531-.007813.003906-.03125.019532-.007812.003906-.035156.019531h-.003906l-.035157.023437c-.117187.066407-.234375.136719-.347656.207032-.039063.023437-.078125.046875-.117187.070312l-.039063.023438c-.15625.097656-.308594.195312-.460937.292968-2.953126 1.957032-5.527344 4.429688-7.601563 7.300782l-.03125.042968h-.003906l-.027344.039063-.007813.011719-.023437.03125-.007813.011718-.023437.03125-.007813.015626-.023437.027343-.046875.0625-.019531.027344-.011719.015625-.019531.03125-.015625.023438-.015625.019531-.035157.046875s-.164062.230468-.449218.628906c-.289063.402344-.699219.976562-1.191406 1.664062-.492188.6875-1.066407 1.488282-1.683594 2.351563-.617188.859375-1.273438 1.773437-1.929688 2.691406s-1.316406 1.835938-1.929687 2.695313c-.617188.859375-1.191407 1.660156-1.683594 2.347656-.492187.691406-.90625 1.261719-1.191406 1.664062-.289063.402344-.453125.632813-.453125.632813l-.058594.078125-.019531.03125-.039063.050781-.023437.039063-.03125.042968-.027344.039063-.03125.042969-.03125.039062-.027344.039063-.027343.042969-.03125.042968-.027344.039063-.03125.042969-.027344.039062-.027344.042969c-.019531.027343-.039062.054687-.058594.082031l-.023437.035156c-.011719.015625-.023437.03125-.035156.050782l-.019531.027343-.035157.050781-.023437.03125-.035156.050782-.019532.03125-.039062.050781-.019532.027344-.035156.054687-.015625.023438-.042969.058594-.003906.007812c-.050781.074219-.101562.152344-.152344.226562h-.003906l-.042968.066407-.011719.015625-.042969.066406-.011719.015625-.042969.0625-.011718.015625c-.011719.023438-.027344.046875-.042969.070312l-.007813.003907-.046874.074219c-.089844.132812-.175782.261718-.261719.390624v.003907c-.015625.023437-.03125.046875-.050781.074219l-.003907.007812c-.015625.023438-.03125.046875-.046875.074219h-.003906c-8.332031 12.667969-13.433594 28.78125-14.5625 45.835937-.425781 6.410156 4.425781 11.953125 10.839844 12.378906.261718.015626.523437.023438.78125.023438 6.121094-.003906 11.195312-4.757812 11.597656-10.867188.921875-13.917968 5.15625-26.785156 11.914062-36.222656l10.515626-14.675781c.441406-.707031 1.023437-1.316406 1.710937-1.792969l-9.914063-18.988281c2.210938-2.59375 5.449219-4.089844 8.859376-4.085937zm0 0" fill="#df8d00"/><path d="m259.695312 338.269531c10.8125 15.09375 28.339844 15.09375 39.152344 0l10.511719-14.675781c10.539063-14.707031 16.457031-34.65625 16.457031-55.457031 0-20.804688-5.917968-40.753907-16.457031-55.460938l-10.511719-14.675781c-10.8125-15.09375-28.339844-15.09375-39.152344 0l-10.511718 14.675781c-10.539063 14.707031-16.457032 34.65625-16.457032 55.460938 0 20.800781 5.917969 40.75 16.457032 55.457031zm0 0" fill="#ffd432"/><path d="m279.269531 186.679688h-.175781l-.023438.003906h-.179687l-.023437.003906h-.128907l-.007812.003906h-.121094l-.019531.003906h-.097656l-.023438.003907h-.078125l-.015625.003906h-.078125l-.027344.003906h-.003906c-.0625.003907-.128906.007813-.1875.007813h-.003906l-.03125.003906h-.007813l-.035156.003906h-.042969l-.035156.003906h-.039063l-.003906.003907h-.035156c-2.789062.210937-5.503906.976562-7.992188 2.246093l-.078124.039063-.027344.015625-.054688.027344-.019531.007812-.023437.011719-.011719.007813-.035157.019531c-.039062.019531-.078124.039062-.113281.058593l-.039062.019532-.007813.007812-.035156.015625-.046875.023438-.03125.019531-.046875.023438-.035156.019531-.003906.003906-.035157.015625-.003906.003906-.035156.019532-.039063.019531-.003906.003906c-.085938.046875-.175781.097656-.265625.148437l-.007813.003907-.03125.019531-.039062.019531-.011719.003907-.03125.019531-.003906.003906-.035156.019531-.007813.003906-.03125.019532-.007812.003906-.03125.019531-.003906.003907-.035157.019531h-.003906c-.117187.070312-.230469.136719-.347656.207031-.039063.023438-.078125.046875-.117188.070312l-.039062.023438c-.152344.097656-.308594.195312-.460938.292969-2.953125 1.957031-5.527343 4.429687-7.601562 7.300781l-.03125.042969-.027344.039062-.007813.011719-.027343.03125-.007813.011719-.023437.03125-.007813.015625-.023437.027344-.007813.015624-.035156.046876-.023438.027343-.007812.015625-.023438.03125-.015624.019532-.046876.070312s-.164062.226562-.453124.628906c-.289063.402344-.699219.976563-1.191407 1.664063-.492187.6875-1.066406 1.488281-1.683593 2.347656-.617188.859375-1.273438 1.777344-1.929688 2.695313-.65625.917968-1.3125 1.835937-1.929688 2.695312-.617187.859375-1.191406 1.660156-1.683593 2.347656-.492188.6875-.902344 1.261719-1.191407 1.664063-.289062.402343-.453124.628906-.453124.628906l-.058594.082031-.019532.03125-.035156.050782-.027344.035156-.03125.042968-.027343.039063-.03125.042969-.027344.042968-.03125.039063-.027344.042969-.03125.039062-.027343.042969-.03125.042969-.023438.039062-.03125.039063c-.019531.03125-.039062.058593-.058594.085937l-.023437.035156c-.011719.015626-.023438.03125-.035157.046876l-.019531.03125-.035156.050781-.023437.03125-.035157.050781-.019531.027344-.035156.054687-.058594.082031-.054688.082032-.007812.007812c-.050781.074219-.101562.148438-.152344.226563l-.046875.066406-.011719.015625-.042968.0625-.011719.019531-.039063.0625-.015624.015625c-.011719.023438-.027344.046875-.042969.066406l-.003907.007813-.050781.074219c-.085937.128906-.171875.261718-.261719.390625v.003906c-.015624.023437-.03125.046875-.046874.074219l-.007813.007812c-.015625.023438-.03125.046875-.046875.074219h-.003906c-8.332032 12.667969-13.433594 28.78125-14.5625 45.832031-.425782 6.414063 4.429687 11.957032 10.839844 12.382813.261718.015625.523437.023437.78125.023437 6.125-.003906 11.195312-4.757812 11.597656-10.867187.921875-13.917969 5.15625-26.785157 11.917968-36.222657l10.511719-14.675781c.441407-.707031 1.023438-1.316406 1.710938-1.792969l-9.910157-18.984374c2.207032-2.601563 5.445313-4.09375 8.855469-4.09375zm0 0" fill="#df8d00"/><path d="m279.269531 186.679688c.214844.007812.429688.019531.640625.039062.085938 0 .175782-.003906.261719-.003906.125 0 .25.003906.375.007812-.089844-.007812-.183594-.011718-.277344-.015625h-.019531l-.019531-.003906h-.039063c-.148437-.007813-.292968-.011719-.441406-.015625h-.039062l-.039063-.003906h-.359375zm0 0" fill="#f4ac03"/><path d="m279.269531 186.679688c.214844.007812.429688.019531.640625.039062.085938 0 .175782-.003906.261719-.003906.125 0 .25.003906.375.007812-.089844-.007812-.183594-.011718-.277344-.015625h-.019531l-.019531-.003906h-.039063c-.148437-.007813-.292968-.011719-.441406-.015625h-.039062l-.039063-.003906h-.359375zm.640625.039062c-1.625.035156-3.226562.40625-4.703125 1.089844-.09375-.003906-.183593-.003906-.277343-.003906-1.871094 0-3.714844.457031-5.375 1.324218-3.105469 1.664063-5.859376 3.917969-8.109376 6.628906l-.003906.003907-.035156.039062-.03125.039063-.003906.007812c-.097656.113282-.191406.226563-.285156.339844l-.003907.003906-.03125.039063h-.003906l-.03125.042969-.003906.003906c-.011719.015625-.023438.027344-.03125.039062l-.003907.003906-.03125.039063-.007812.007813-.027344.035156-.003906.007812-.03125.035156-.003906.007813-.03125.035156-.003906.007813-.03125.035156-.003907.007812-.035156.042969c-.058594.074219-.117187.148438-.175781.222657l-.003906.003906-.027344.039062-.007813.007813-.027343.035156-.007813.011719-.027344.03125-.03125.046875-.011719.011719-.023437.03125-.011719.011718-.058594.078125-.007812.011719-.058594.078125-.011718.011719-.023438.03125-.007812.015625c-.035157.042969-.070313.089843-.101563.132812l-.011719.015625-.023437.027344-.011719.019531-.019531.027344-.015625.019531-.019532.023438-.03125.046875-.015624.019531-.019532.023438-.015625.019531-.015625.027343-.015625.019532-.019531.027344-.011719.019531-.019531.027343-.015625.015626-.019531.027343-.011719.019531-.035156.046876-.019531.027343-.011719.019531-.023438.03125-.011719.011719-.03125.046875s-.164062.226563-.453124.628906c-.285157.402344-.695313.976563-1.1875 1.664063-.496094.6875-1.070313 1.488281-1.6875 2.347656-.613282.863281-1.269532 1.777344-1.929688 2.695313-.65625.917968-1.3125 1.835937-1.929688 2.695312-.613281.859375-1.1875 1.660156-1.683593 2.347656-.492188.6875-.902344 1.261719-1.191407 1.664063-.285156.402344-.449218.628906-.449218.628906-10.535156 14.710938-16.457032 34.660157-16.457032 55.460938s5.921876 40.75 16.457032 55.460937l10.511718 14.671875.03125.046875.015626.019532.019531.027343.015625.023438.015625.019531.03125.046875.023437.027344.011719.015625.019531.027344.035156.046874.007813.015626.023437.03125.007813.011718.027344.035156.003906.007813.027344.035156.003906.007813.03125.039062c2.5 3.492188 5.765625 6.367188 9.546875 8.410156 5.707031 2.953126 12.726562.722657 15.683594-4.988281 2.945312-5.691406.730468-12.695312-4.953125-15.664062-.683594-.472657-1.269531-1.085938-1.710938-1.792969l-10.511719-14.675781c-7.691406-10.734375-12.101562-26.011719-12.101562-41.90625s4.410156-31.167969 12.101562-41.90625l10.511719-14.675781c.40625-.59375.890625-1.132813 1.4375-1.597657 6.078125-.183593 10.894531-5.1875 10.851563-11.265625-.042969-6.222656-4.796875-11.402344-10.992188-11.972656zm0 0" fill="#f4ac03"/><path d="m260.863281 308.296875c-6.429687.003906-11.632812 5.222656-11.625 11.648437 0 2.425782.761719 4.792969 2.175781 6.765626l8.28125 11.558593.03125.046875.023438.03125.007812.011719.027344.035156.003906.007813.027344.039062.007813.007813.027343.039062.003907.003907.027343.039062.003907.003906c2.527343 3.589844 5.855469 6.546875 9.71875 8.632813 5.710937 2.945312 12.730469.707031 15.675781-5.003907 2.9375-5.695312.722656-12.6875-4.957031-15.652343-.6875-.476563-1.269531-1.085938-1.710938-1.792969l-8.28125-11.5625c-2.183593-3.054688-5.714843-4.867188-9.46875-4.859375zm0 0" fill="#df8d00"/><path d="m186.179688 279.773438c.214843.003906.429687.019531.640624.035156.085938 0 .175782-.003906.261719-.003906.125 0 .25.003906.375.007812-.089843-.007812-.183593-.011719-.277343-.015625h-.019532l-.019531-.003906h-.039063c-.148437-.007813-.292968-.011719-.441406-.015625h-.082031l-.035156-.003906zm.640624.035156c-1.625.039062-3.226562.410156-4.703124 1.089844-.09375 0-.183594-.003907-.277344-.003907-1.871094 0-3.714844.457031-5.375 1.324219-3.105469 1.664062-5.859375 3.917969-8.109375 6.628906l-.003907.003906-.035156.039063v.003906l-.035156.039063-.003906.003906c-.09375.113281-.1875.226562-.28125.339844l-.003906.003906-.03125.039062-.003907.003907-.03125.039062-.003906.003907c-.011719.015624-.023437.027343-.03125.039062l-.003906.003906-.03125.039063-.007813.007812-.027344.035157-.007812.007812-.027344.035156-.007812.007813-.027344.035156-.003906.007813-.03125.035156-.007813.007812-.03125.042969c-.058593.074219-.117187.148437-.175781.222656l-.003906.003907-.027344.039062-.007812.007812-.027344.035157-.011719.011719-.023437.03125-.007813.011718-.027344.035156-.007812.011719-.023438.03125-.011719.011719-.058593.078125-.007813.011719-.027344.03125-.007812.015625-.023438.03125-.011718.011719-.023438.03125-.007812.015624c-.035156.042969-.070313.089844-.101563.132813l-.011719.015625-.023437.027344-.011719.019531-.019531.027344-.015625.019531-.019531.023438-.03125.046874-.015625.019532-.019532.023437-.015624.019531-.019532.027344-.011718.019532-.019532.027343-.015625.019531-.019531.027344-.011719.015625-.019531.027344-.011719.019531-.035156.046875-.019531.027344-.015625.015625-.019531.035156-.011719.011719-.03125.046875s-.164063.230469-.453125.628906c-.289063.402344-.699219.976563-1.191406 1.664063-.492188.6875-1.066407 1.488281-1.683594 2.351562-.613282.859375-1.273438 1.777344-1.929688 2.691407-.65625.917968-1.3125 1.835937-1.929687 2.695312-.617188.859375-1.191407 1.664062-1.683594 2.351562s-.902344 1.257813-1.191406 1.660157c-.285157.402343-.449219.632812-.449219.632812-10.539062 14.707031-16.457031 34.65625-16.457031 55.457031 0 20.800782 5.917969 40.75 16.457031 55.460938l10.511719 14.675781.03125.042969.015625.019531.015625.027344.019531.023437.015625.019532.03125.046875.019531.027343.046875.0625.019531.027344.035157.046875.03125.046875.007812.007813.027344.035156.003906.007813.027344.039062h.003906c2.5 3.492188 5.765625 6.367188 9.542969 8.410156 5.707031 2.953125 12.730469.722656 15.683594-4.984375 2.949218-5.691406.738281-12.699219-4.949219-15.664062-.6875-.476563-1.269531-1.085938-1.710937-1.796875l-10.511719-14.671875c-7.691407-10.738281-12.105469-26.011719-12.105469-41.910157 0-15.894531 4.414062-31.167968 12.105469-41.90625l10.511719-14.671874c.402343-.597657.886718-1.136719 1.4375-1.601563 6.074218-.183594 10.894531-5.1875 10.847656-11.265625-.039063-6.222656-4.792969-11.398438-10.988282-11.972656zm0 0" fill="#f4ac03"/><path d="m167.773438 401.386719c-6.429688.007812-11.632813 5.222656-11.628907 11.648437.003907 2.425782.765625 4.792969 2.179688 6.765625l8.28125 11.558594c.007812.015625.019531.03125.03125.046875l.023437.03125.007813.011719.027343.039062.003907.007813.027343.035156.003907.007812.03125.039063.003906.003906.027344.042969h.003906c2.527344 3.59375 5.855469 6.546875 9.71875 8.636719 5.710937 2.945312 12.730469.703125 15.675781-5.007813 2.9375-5.695312.71875-12.6875-4.957031-15.652344-.6875-.472656-1.269531-1.085937-1.710937-1.792968l-8.28125-11.558594c-2.1875-3.058594-5.714844-4.871094-9.46875-4.863281zm0 0" fill="#df8d00"/><path d="m128 512.496094c-6.425781 0-11.636719-5.210938-11.636719-11.636719.003907-3.085937 1.226563-6.042969 3.410157-8.226563l372.359374-372.359374c4.542969-4.546876 11.910157-4.550782 16.457032-.007813 4.542968 4.542969 4.546875 11.910156.007812 16.453125-.003906.003906-.007812.003906-.007812.007812l-372.363282 372.363282c-2.179687 2.183594-5.140624 3.410156-8.226562 3.40625zm0 0" fill="#f4ac03"/><path d="m337.453125 303.042969c-6.425781 0-11.636719-5.210938-11.632813-11.636719 0-3.085938 1.222657-6.042969 3.40625-8.226562l20.738282-20.738282c4.542968-4.542968 11.910156-4.542968 16.453125 0 4.542969 4.546875 4.542969 11.914063 0 16.457032l-20.738281 20.738281c-2.179688 2.183593-5.140626 3.410156-8.226563 3.40625zm0 0" fill="#df8d00"/><path d="m267.636719 372.863281c-6.429688 0-11.636719-5.210937-11.636719-11.640625 0-3.082031 1.226562-6.042968 3.40625-8.222656l20.738281-20.738281c4.546875-4.542969 11.910157-4.542969 16.457031 0 4.542969 4.542969 4.542969 11.910156 0 16.453125l-20.738281 20.738281c-2.179687 2.1875-5.140625 3.414063-8.226562 3.410156zm0 0" fill="#df8d00"/><path d="m174.359375 466.136719c-6.425781 0-11.636719-5.210938-11.632813-11.636719 0-3.085938 1.226563-6.042969 3.40625-8.226562l20.738282-20.738282c4.542968-4.542968 11.910156-4.542968 16.453125 0 4.542969 4.546875 4.542969 11.910156 0 16.457032l-20.738281 20.738281c-2.179688 2.183593-5.140626 3.410156-8.226563 3.40625zm0 0" fill="#df8d00"/><path d="m290.589844 369.167969c-15.089844-10.8125-15.089844-28.34375 0-39.15625l14.675781-10.511719c14.710937-10.535156 34.660156-16.457031 55.460937-16.457031 20.800782 0 40.75 5.921875 55.457032 16.457031l14.675781 10.511719c15.09375 10.8125 15.09375 28.34375 0 39.15625l-14.675781 10.511719c-14.707032 10.535156-34.65625 16.453124-55.457032 16.453124-20.800781 0-40.75-5.917968-55.460937-16.453124zm0 0" fill="#f4ac03"/><path d="m197.5 462.257812c-15.09375-10.8125-15.09375-28.34375 0-39.15625l14.675781-10.511718c14.707031-10.535156 34.65625-16.457032 55.460938-16.457032 20.800781 0 40.75 5.921876 55.457031 16.457032l14.675781 10.511718c15.09375 10.8125 15.09375 28.34375 0 39.15625l-14.675781 10.511719c-14.707031 10.535157-34.65625 16.457031-55.457031 16.457031-20.804688 0-40.753907-5.921874-55.460938-16.457031zm0 0" fill="#f4ac03"/><path d="m290.589844 369.167969c-15.089844-10.8125-15.089844-28.34375 0-39.15625l14.675781-10.511719c14.710937-10.535156 34.660156-16.457031 55.460937-16.457031 20.800782 0 40.75 5.921875 55.457032 16.457031l14.675781 10.511719c15.09375 10.8125 15.09375 28.34375 0 39.15625l-14.675781 10.511719c-14.707032 10.535156-34.65625 16.453124-55.457032 16.453124-20.800781 0-40.75-5.917968-55.460937-16.453124zm0 0" fill="#ffd432"/><path d="m293.851562 344.921875c-6.425781.003906-11.632812 5.214844-11.628906 11.644531 0 2.777344.996094 5.464844 2.808594 7.574219.21875.253906.441406.503906.671875.753906h.003906c.027344.03125.058594.0625.085938.09375l.011719.015625.050781.050782.027343.03125.007813.007812.03125.035156h.003906c1.351563 1.414063 2.828125 2.707032 4.414063 3.855469l.003906.003906.042969.03125.011719.007813.035156.027344.046875.03125.015625.011718.035156.027344.011719.007812.046875.035157 14.675781 10.511719c14.707031 10.535156 34.65625 16.457031 55.460937 16.457031h.40625l.066407-.003907h.472656l.054687-.003906h.355469l.0625-.003906h.171875l.070313-.003906h.050781l.230469-.003906h.054687l.066406-.003907h.167969l.066407-.003906h.117187l.054687-.003906h.117188l.066406-.003907h.050782l.066406-.003906h.117187l.054688-.003906h.0625l.054687-.003906h.117188l.066406-.003906h.050781l.0625-.003907h.058594l.0625-.003906h.054687l.230469-.007813.054688-.003906h.0625l.0625-.003906h.054687l.054688-.003906h.0625l.117187-.007813h.058594l.058594-.003906h.0625l.054687-.003906h.058594l.058594-.003907.0625-.003906h.054687l.0625-.003906.054688-.003906h.0625l.050781-.003906.066406-.003907h.050782l.066406-.003906h.050781l.066406-.003906.050781-.003907.066407-.003906.054687-.003906h.058594l.113281-.007812.066407-.003907h.054687l.070313-.003906.042968-.003906.070313-.003907h.046875l.066406-.003906.050781-.003906.0625-.003906.054688-.003906.0625-.003907h.054687l.0625-.003906.117188-.007813.054687-.003906.0625-.003906.054688-.003906.0625-.003906.050781-.003907.066406-.003906h.050782l.066406-.007813h.046875l.070312-.007812h.046875l.066406-.003906.054688-.003906.257812-.019532h.03125l.078126-.007812h.039062l.074219-.007813h.039062l.117188-.011719.074219-.003906.042968-.003906.070313-.003906.046875-.003906.066406-.003907.050781-.003906.066407-.003906.046874-.003907.066407-.007812.050781-.003906.070312-.003906.042969-.003907.070313-.003906.042968-.003906.074219-.007813h.035157l.117187-.011718.078125-.003907.019531-.003906c.101563-.007813.207031-.015625.3125-.027344h.007813l.09375-.007812h.019531l.082031-.007813.035156-.003906.082032-.007812h.03125l.082031-.007813.035156-.003906.078125-.007813.035156-.003906.074219-.003906.046875-.003906.070313-.007813.042969-.003906.070312-.007813.042969-.003906.074219-.007812.042968-.003907.070313-.003906.042969-.003906.074218-.007813.027344-.003906.089844-.007812.019531-.003907c.171875-.015625.347656-.035156.523437-.050781l.019532-.003906.082031-.007813.035156-.003906.078125-.007813.035156-.003906.078126-.007812.035156-.003906.117187-.011719.074219-.007813.039062-.003906.078126-.011719.035156-.003906.078125-.007813.035156-.003906.078125-.007812.035156-.003906.082032-.007813.03125-.003906.082031-.011719h.023437l.089844-.011719h.015625c.179687-.023437.359375-.042969.539063-.066406h.007812l.085938-.011719.027343-.003906.085938-.007812.027343-.003907.085938-.011719.027344-.003906.085937-.007812.109375-.015625.035156-.003907.078126-.007812.035156-.003906.078125-.011719.03125-.003906.082031-.011719.03125-.003906.085938-.007813.027343-.003906.085938-.011719.019531-.003906.09375-.011719h.003906c.21875-.03125.433594-.058593.652344-.089843h.011719l.097656-.015626h.011719l.09375-.015624h.019531l.09375-.015626h.019531l.09375-.015624h.019532l.09375-.015626h.011718l.097656-.015624h.015626l.097656-.015626.011718-.003906.097657-.011718.015625-.003907c.285156-.042969.578125-.085937.863281-.128906h.007813l.101562-.015625.011719-.003906.09375-.015625h.015625l.097656-.015625.015625-.003906.089844-.015626.023437-.003906.089844-.011718.015625-.003907.097656-.015625h.015625l.097656-.019531h.011719l.097657-.015625.015624-.003906.097657-.015625h.003906c.324219-.054688.652344-.109375.976563-.167969h.003906l.105468-.019531h.007813l.097656-.015625.011719-.003906.101562-.019532h.007813l.101563-.019531h.007812l.210938-.039063h.003906c.363281-.066406.722656-.132812 1.082031-.203124h.003906l.101563-.019532h.007812l.097656-.019531.015626-.003906.097656-.019531h.011718l.09375-.019532.015626-.003906.097656-.019531h.007812l.101563-.019531h.003906c.359375-.074219.71875-.148438 1.078125-.222657l.101562-.023437h.007813l.097656-.019532.011719-.003906.101562-.019531h.003907l.105469-.023437h.003906c.464844-.101563.929687-.203126 1.390625-.308594l.101562-.027344h.007813l.101562-.023438h.003906l.105469-.023437v-.003906l.105469-.023438h.003906c.457032-.105469.917969-.21875 1.375-.332031h.003906c.566407-.140625 1.125-.285156 1.683594-.433594l.007813-.003906.097656-.027344h.007813l.097656-.027344h.007812l.097656-.027343.003907-.003907.101562-.027343h.003907c.382812-.101563.765624-.210938 1.144531-.320313h.003906l.101563-.027344h.003906l.101562-.03125.105469-.03125c.484375-.136718.96875-.28125 1.449219-.429687l.207031-.0625c.070313-.019531.136719-.042969.207031-.0625.375-.117187.75-.234375 1.125-.355469l.003906-.003906.105469-.035156.089844-.027344.105469-.035156.007812-.003906.097656-.03125.101563-.03125.003906-.003907c.402344-.132812.808594-.265625 1.207031-.40625l.105469-.035156.007813-.003906.09375-.03125.007812-.003907.09375-.03125.007813-.003906.09375-.03125.007812-.003906c.332031-.117188.664063-.234375.992188-.351562l.007812-.003907.089844-.03125.011719-.007812.085937-.03125.015625-.003907.085938-.03125.015625-.007812.085937-.03125.015625-.003906.085938-.03125.015625-.007813.085937-.03125.011719-.003906.089844-.03125.003906-.003906.097656-.035157c.296875-.109374.59375-.222656.886719-.335937l.007813-.003906.085937-.03125.015625-.007813.085938-.03125.015624-.007812.082032-.03125.015625-.007813.085937-.03125.015625-.007812.082031-.03125.019532-.007813.082031-.03125.011719-.003906.089844-.035156.007812-.003906.089844-.035157.003906-.003906c.195312-.074219.386719-.152344.578125-.230469l.007813-.003906.085937-.03125.015625-.007812.082031-.03125.019531-.007813.070313-.03125.03125-.011719.070313-.03125.027343-.007812.070313-.03125.027344-.011719.074218-.027344.023438-.011719.074218-.03125.027344-.007812.074219-.03125.019531-.007812.078125-.035157.015625-.007812.085938-.035157c.164062-.066406.324218-.132812.484375-.203124l.09375-.039063h.003906l.082031-.035156.019532-.007813.078124-.035156.019532-.007812.074218-.03125.027344-.011719.066406-.03125.03125-.011719.066407-.03125.03125-.011719.070312-.03125.027344-.011719.070313-.027343.03125-.015625.066406-.027344.03125-.015625.066406-.027344.03125-.015625.070312-.027344.023438-.011718.070312-.03125.019532-.007813c.121094-.054687.238281-.105469.355468-.160156l.011719-.003906.074219-.035157.023438-.007812.070312-.03125.03125-.015625.066406-.027344.027344-.015625.066406-.027344.03125-.015624.070313-.03125.027343-.011719.066407-.03125.035156-.015625.0625-.027344.03125-.015625.066406-.03125.03125-.015625.066407-.027344.027343-.015625.066407-.027343.03125-.015626.070312-.03125.023438-.011718.070312-.03125.019531-.011719c.117188-.054687.230469-.105469.34375-.160156l.019531-.007813.078126-.039062.015624-.003906.074219-.035157.023438-.011719.066406-.03125.09375-.046874.035156-.015626.0625-.03125.027344-.011718.070313-.03125.027343-.015625.066407-.03125.09375-.046875.035156-.015625.0625-.027344.09375-.046875.035156-.019531.0625-.027344.125-.0625c.109375-.050781.214844-.105469.320312-.15625l.027344-.011719.0625-.03125.035156-.019531.058594-.027344.035156-.019531.058594-.027344.035156-.019531.058594-.027344.132813-.066406.058593-.03125.035157-.015625.058593-.03125.035157-.015625.058593-.03125.226563-.113281.058594-.03125.039062-.019532.050781-.027343.050782-.023438.046875-.023437.03125-.019532c.070312-.035156.140625-.070312.210937-.105468l.039063-.019532.050781-.027343.042969-.023438.050781-.027343.042969-.023438.09375-.046875.050781-.027344.140625-.070312.046875-.027344.046875-.023437.046875-.027344.042969-.019532.050781-.027343.046875-.023438.046875-.027343.046875-.023438.046875-.027344.050781-.027344.042969-.019531.054688-.03125.039062-.019531.0625-.035156.03125-.015625.066406-.035157.035156-.019531.082032-.046875.035156-.019531.058594-.03125.042968-.023437.050782-.027344.042968-.023438.050782-.027344.039062-.023437.054688-.027344.039062-.023437.050782-.027344.042968-.023438.050782-.027343.042968-.023438.046875-.027343.046875-.023438.046875-.027344.046875-.023437.140625-.082031.042969-.023438.054688-.027344.035156-.023437.0625-.035157.027344-.015624.066406-.035157.03125-.019531c.058594-.035156.121094-.066406.179687-.101562l.03125-.015626.0625-.039062.039063-.019531.050781-.03125.042969-.023438.050781-.027343.039063-.023438.050781-.03125.042969-.023438.050781-.03125.039062-.023437.050781-.027344.042969-.023437.046875-.027344.042969-.027344.046875-.027344.046875-.023437.046875-.027344.085938-.054687.050781-.027344.042969-.023438.042968-.027343.050782-.03125.039062-.023438.054688-.03125.039062-.023437.050781-.03125.039063-.023438.085937-.050781.03125-.019531.0625-.035156.035157-.019532.054687-.03125.039063-.027344.09375-.054687.042968-.027344.042969-.023437.046875-.03125.042969-.027344.046875-.027344.042968-.027344.046876-.027343.042968-.027344.046875-.027344.042969-.023437.046875-.03125.042969-.023438.046875-.03125.042969-.023437.046874-.03125.042969-.027344.050781-.03125.035157-.019531.058593-.039063.03125-.019531.078126-.046875.007812-.007813.089844-.054687.027344-.015625.0625-.039062.027343-.019532.097657-.058594.050781-.03125.039062-.027343.046875-.027344.042969-.027344.046875-.03125.039062-.023437.046876-.03125.042968-.027344.046875-.03125.042969-.023438.042969-.03125.042969-.027343.046874-.027344.085938-.054687.042969-.03125.046875-.027344.085937-.054688.042969-.03125.011719-.007812c.144531-.09375.285156-.1875.425781-.289063.101562-.058593.199219-.121093.300781-.1875.125-.082031.246094-.164062.367188-.246093l.117187-.078126.03125-.023437.070313-.042969.019531-.015625c.078125-.054687.15625-.109375.238281-.164062l.082031-.054688.027344-.019531.066406-.046875.09375-.0625.066407-.046875.125-.085938.035156-.027343c.023437-.015625.046875-.03125.070313-.046875l.027343-.019532.085938-.0625.015625-.007812c.070312-.050781.136718-.097656.207031-.148438l.007813-.003906.09375-.066406.019531-.011719.085937-.066406.015625-.007813.101563-.074218 14.675781-10.511719c5.246094-3.714844 6.484375-10.980469 2.769531-16.222656-3.714844-5.242188-10.976562-6.484375-16.222656-2.769531-.03125.023437-.066406.046874-.097656.074218l-14.675782 10.511719-1.183593.820313c-.105469.074218-.210938.148437-.3125.222656-.140625.085937-.285157.171875-.425781.265625-10.570313 6.859375-25.144532 10.792969-39.988282 10.792969-15.894531 0-31.167968-4.410157-41.90625-12.101563l-14.675781-10.511719c-.546875-.378906-1.046875-.820312-1.496094-1.3125-2.207031-2.558594-5.417969-4.023437-8.792969-4.019531zm0 0" fill="#f4ac03"/><path d="m197.5 462.257812c-15.09375-10.8125-15.09375-28.34375 0-39.15625l14.675781-10.511718c14.707031-10.535156 34.65625-16.457032 55.460938-16.457032 20.800781 0 40.75 5.921876 55.457031 16.457032l14.675781 10.511718c15.09375 10.8125 15.09375 28.34375 0 39.15625l-14.675781 10.511719c-14.707031 10.535157-34.65625 16.457031-55.457031 16.457031-20.804688 0-40.753907-5.921874-55.460938-16.457031zm0 0" fill="#ffd432"/><path d="m200.761719 438.011719c-6.425781.003906-11.632813 5.21875-11.628907 11.644531 0 2.78125.996094 5.46875 2.808594 7.574219.21875.253906.441406.503906.671875.753906l.003907.003906c.027343.03125.054687.0625.085937.09375l.027344.027344.023437.027344.011719.007812.027344.03125.007812.007813.03125.035156h.003907c1.351562 1.417969 2.828124 2.707031 4.414062 3.855469l.003906.003906.039063.03125.011719.007813.039062.027343.011719.007813.035156.027344.011719.007812.039062.027344.011719.007812.046875.035156 14.675781 10.511719c14.707031 10.535157 34.65625 16.457031 55.460938 16.457031h.589843l.054688-.003906h.472656l.0625-.003906h.238282l.054687-.003906h.1875l.046875-.003906.234375-.003907h.167969l.066406-.003906h.121094l.054687-.003906h.117188l.0625-.003907h.054687l.0625-.003906h.121094l.050781-.003906h.0625l.058594-.003906h.117187l.066407-.003906h.050781l.066406-.003907h.113282l.054687-.003906h.0625l.054687-.003906.234376-.007813h.054687l.0625-.003906h.058594l.058593-.003906.054688-.003906h.0625l.054688-.003907h.0625l.058593-.003906h.058594l.0625-.003906.054687-.003907h.058594l.058594-.003906h.0625l.050781-.003906.066407-.003906h.050781l.066406-.003906.050781-.003907h.066406l.050782-.003906.066406-.003906h.050781l.066407-.003907.050781-.003906.066406-.003906h.054687l.058594-.003906.113282-.003906.0625-.003907.058593-.003906.066407-.003906.046874-.003907h.070313l.046875-.003906.0625-.003906.054688-.003906.0625-.003906h.054687l.0625-.003907.054687-.003906.117188-.007813.0625-.003906.054688-.003906.0625-.003906.054687-.003906.0625-.003907h.050781l.0625-.003906.054688-.003906.066406-.003907.042969-.003906.070312-.003906.050781-.003906.066407-.003906.054687-.003907.257813-.015625.03125-.003906.078125-.003906.039062-.003906.074219-.007813h.039063l.078124-.007813h.039063l.070313-.007812.046874-.003906.070313-.003906.046875-.003907.0625-.003906.050781-.003906.070313-.003907.046875-.003906.066406-.003906.050781-.003906.066406-.007813.046876-.003906.070312-.003906.042969-.003907.074219-.003906.035156-.003906.117187-.011719.078125-.003906.015625-.003906c.105469-.007813.210938-.015625.316407-.023438l.007812-.003906.089844-.007813h.023437l.082031-.007812.035157-.003906.082031-.007813h.03125l.082031-.007812.03125-.003907.082031-.007812.035157-.003906.074219-.007813.042968-.003906.074219-.003906.042969-.003907.070312-.007812.042969-.003906.074219-.007813.042968-.003906.070313-.007813.039063-.003906.078124-.003906.027344-.003906.089844-.007813.015625-.003906c.175781-.015625.351563-.035156.527344-.050781l.019531-.003906.082031-.007813.035157-.003906.078124-.007813.035157-.003906.078125-.007812.035156-.003907.117188-.011719.074218-.011718.117188-.011719.035156-.003906.078125-.007813.035156-.003906.078125-.007812.035156-.003907.082032-.011719.03125-.003906.082031-.007812.023437-.003906.089844-.007813.015625-.003906c.179688-.019531.359375-.042969.539063-.0625h.007812l.085938-.011719.027344-.003906.085937-.007813.027344-.003906.085937-.011719.027344-.003906.085938-.011719h.027343l.082031-.011719.035157-.003906.078125-.011718.035156-.003907.078125-.007812.035156-.003907.078125-.011718.03125-.003906.085938-.011719.027344-.003907.085937-.011718h.019531l.09375-.011719.003906-.003906c.21875-.027344.433594-.054688.652344-.085938h.011719l.097656-.015625.011719-.003906.09375-.011719.019531-.003906.09375-.011719.019531-.003906.09375-.011719.019532-.003906.09375-.011719.011718-.003906.097657-.011719.015625-.003906.097656-.011719.011719-.003906.097656-.015625h.015625c.289062-.042969.578125-.085937.863281-.132813h.007813l.101562-.015624h.011719l.09375-.015626.015625-.003906.097656-.015625h.015625l.089844-.015625.023437-.003906.089844-.015625h.019532l.09375-.015625.015624-.003906.097657-.015625h.011719l.097656-.019531h.015625l.097656-.015626.003906-.003906c.324219-.050781.652344-.109375.976563-.164062h.003906l.105469-.019532h.007812l.097657-.019531h.011718l.101563-.019531h.007812l.101563-.019531h.003906l.214844-.039063h.003906c.363281-.066406.722656-.132812 1.082031-.203125h.003907l.101562-.019531.007812-.003906.097657-.015625.015625-.003907.09375-.019531.015625-.003906.09375-.015625.015625-.003906.097656-.019532h.007812l.101563-.023437c.363281-.070313.71875-.144531 1.078125-.21875h.003906l.101563-.023437h.007812l.097657-.019532.011718-.003906.101563-.023438h.003906l.105469-.019531v-.003906c.46875-.097656.929687-.199219 1.394531-.308594l.101563-.023437h.007812l.101562-.023438h.003907l.101562-.023437.003907-.003907.105468-.023437h.003906c.457032-.109375.917969-.21875 1.375-.332031h.003907c.566406-.140625 1.125-.285156 1.683593-.4375h.003907l.101562-.027344h.007813l.097656-.027344.007812-.003906.097657-.027344h.003906l.101563-.027344h.003906c.382812-.105468.765625-.210937 1.144531-.320312h.003906l.101563-.027344.003906-.003906.101562-.027344.101563-.03125h.003906c.484375-.140625.96875-.28125 1.449219-.429687l.207031-.0625c.070313-.023438.136719-.042969.207031-.0625.375-.117188.75-.238281 1.121094-.359375h.007813l.105469-.035156.089843-.027344.105469-.035156.007812-.003907.097657-.03125.101562-.03125.003907-.003906c.402343-.132813.804687-.269531 1.207031-.40625l.011719-.003906.089843-.03125.011719-.003907.089844-.03125.011718-.003906.089844-.03125.011719-.003906.089844-.03125.007812-.003906c.332031-.117188.664063-.234375.996094-.355469h.007813l.085937-.035156.015625-.003907.085938-.03125.015624-.003906.085938-.03125.011719-.007812.085937-.03125.015625-.003906.085938-.03125.015625-.007813.085937-.03125.015625-.003906.089844-.035157.097656-.035156c.300782-.113281.59375-.222656.890625-.335937l.003907-.003907.089843-.035156.015625-.003906.085938-.03125.011718-.007812.085938-.03125.015625-.007813.082031-.03125.117188-.046875.082031-.03125.011719-.003906.089844-.035156.007812-.003907.089844-.035156.007812-.003906c.191406-.074219.382813-.152344.578125-.230469l.007813-.003906.085937-.035156.011719-.003907.082031-.035156.019531-.007813.074219-.027343.027344-.011719.074219-.03125.023437-.011719.074219-.027343.023438-.011719.074218-.03125.027344-.007813.070312-.03125.027344-.011718.074219-.03125.019531-.007813.082032-.03125.015624-.007813.082032-.035156h.003906c.160156-.066406.320312-.136718.480469-.203125h.003906l.089844-.039062.007812-.003907.082031-.035156.015626-.007812.097656-.039063.074218-.03125.027344-.011719.070313-.03125.027343-.011718.070313-.03125.03125-.011719.066406-.03125.03125-.011719.066407-.03125.03125-.011718.066406-.03125.03125-.011719.066406-.027344.035156-.015625.066406-.03125.023438-.007812.074219-.035157.019531-.007812c.117188-.050781.234375-.101563.351562-.15625l.015626-.003907.074218-.035156.023438-.011718.066406-.03125.03125-.011719.066406-.03125.03125-.011719.066406-.03125.03125-.011719.066407-.03125.03125-.015625.0625-.027344.035156-.015624.0625-.03125.035156-.015626.0625-.027343.035157-.015625.0625-.03125.03125-.011719.066406-.03125.027344-.011719.070312-.03125.09375-.046875.023438-.007812c.113281-.054688.226562-.105469.34375-.160157l.015624-.007812.082032-.039062.011718-.007813.074219-.035156.023438-.011719.070312-.03125.027344-.011719.0625-.03125.035156-.015625.066407-.03125.027343-.011718.066407-.035157.03125-.011719.066406-.03125.027344-.015624.066406-.03125.125-.0625.066406-.03125.03125-.015626.0625-.027343.035156-.019531.0625-.027344.03125-.015625c.105469-.054688.210938-.105469.320313-.15625l.023437-.015625.066406-.03125.125-.0625.0625-.027344.035157-.019531.09375-.046875.058593-.027344.035157-.019531.058593-.03125.035157-.015625.0625-.03125.035156-.019532.09375-.046874.058594-.027344.035156-.019532.058594-.03125.035156-.015624.058594-.03125.140625-.070313.046875-.027344.035156-.015625c.066406-.035156.140625-.070312.210937-.109375l.035157-.019531.054687-.023438.039063-.023437.050781-.027344.140625-.070312.046875-.027344.09375-.046875.046875-.027344.09375-.046875.050781-.027343.042969-.023438.050781-.027344.042969-.023437.09375-.046875.046875-.027344.050781-.027344.042969-.019531.054688-.03125.039062-.019531.0625-.035156.03125-.015626.066406-.039062.035156-.015625.085938-.046875.035156-.019531.054688-.03125.042968-.023438.050782-.027343.042968-.023438.050782-.027344.042968-.023437.050782-.027344.039062-.023437.054688-.027344.042968-.023438.046876-.027344.042968-.023437.050782-.027344.042968-.027343.050782-.023438.042968-.027344.046875-.023437.09375-.054688.042969-.023437.054688-.03125.039062-.019532.0625-.035156.027344-.015625.0625-.039062.03125-.015625c.0625-.035156.121094-.070313.183594-.105469l.027343-.015625.0625-.035156.039063-.019532.054687-.03125.042969-.023437.046875-.03125.042969-.023437.050781-.027344.039063-.023438.050781-.03125.039062-.023437.050781-.027344.042969-.023437.050781-.03125.042969-.023438.046875-.027344.042969-.027344.046875-.027343.042969-.023438.042969-.027343.050781-.027344.042969-.027344.09375-.054688.042968-.023437.054688-.03125.035156-.023437.050781-.03125.039063-.023438.089844-.050781.03125-.019531.058593-.035157.035157-.023437.054687-.03125.039063-.023438.050781-.027344.042969-.027343.046874-.027344.039063-.027344.050781-.027343.042969-.027344.046875-.027344.085938-.054688.046874-.027343.042969-.027344.042969-.023437.050781-.03125.039063-.027344.046875-.027344.042969-.023438.046874-.03125.042969-.027343.050781-.03125.035157-.019531.058593-.039063.03125-.019531.082032-.050782.003906-.003906.089844-.054687.027344-.015625.09375-.058594.058593-.035156.035157-.023438.050781-.035156.042969-.023438.046874-.03125.039063-.023437.050781-.03125.039063-.027344.046875-.027343.042968-.027344.042969-.03125.042969-.027344.046875-.027344.171875-.109375.046875-.03125.128906-.082031.042969-.03125.015625-.007812c.140625-.09375.285156-.191407.421875-.289063.101562-.0625.203125-.121094.300781-.1875.125-.082031.246094-.164063.367188-.246094l.152343-.101562.066407-.046875.019531-.011719c.078125-.054687.160156-.109375.238281-.164063l.015625-.007812.070313-.050781.027343-.015625.0625-.046875.035157-.023438.1875-.128906.0625-.046875.035156-.023438c.023437-.015624.046875-.03125.070313-.046874l.03125-.023438.082031-.058594.015625-.007812c.070312-.050782.140625-.101563.210937-.148438l.007813-.007812.09375-.066406.015625-.011719.089843-.0625.015626-.011719.101562-.070312 14.671875-10.515626c5.226563-3.742187 6.425781-11.007812 2.683594-16.234374-3.742188-5.222657-11.011719-6.425782-16.234375-2.683594l-14.675782 10.511718-1.183593.824219c-.105469.074219-.207031.144531-.308594.222657-.144531.082031-.285156.171874-.425781.261718-10.574219 6.859375-25.148438 10.796875-39.988282 10.796875-15.898437 0-31.171874-4.414062-41.910156-12.105469l-14.671875-10.511718c-.546875-.378906-1.050781-.816406-1.496093-1.3125-2.207032-2.554688-5.417969-4.019532-8.792969-4.015625zm0 0" fill="#f4ac03"/><path d="m430.542969 349.589844c-6.425781 0-11.636719-5.210938-11.632813-11.636719 0-3.085937 1.226563-6.046875 3.40625-8.226563l46.546875-46.546874c4.542969-4.542969 11.910157-4.542969 16.453125 0 4.542969 4.546874 4.542969 11.910156 0 16.457031l-46.546875 46.542969c-2.179687 2.1875-5.140625 3.414062-8.226562 3.410156zm0 0" fill="#ffd432"/><path d="m290.90625 209.953125c-6.425781 0-11.632812-5.210937-11.632812-11.636719 0-3.085937 1.226562-6.042968 3.40625-8.226562l46.546874-46.542969c4.542969-4.546875 11.910157-4.546875 16.453126 0 4.542968 4.542969 4.542968 11.910156 0 16.453125l-46.542969 46.542969c-2.179688 2.1875-5.140625 3.414062-8.230469 3.410156zm0 0" fill="#ffd432"/><path d="m337.453125 442.679688c-6.425781 0-11.636719-5.210938-11.632813-11.636719 0-3.085938 1.222657-6.046875 3.40625-8.226563l46.542969-46.546875c4.546875-4.542969 11.914063-4.542969 16.457031 0 4.542969 4.546875 4.542969 11.914063 0 16.457031l-46.546874 46.542969c-2.179688 2.1875-5.140626 3.414063-8.226563 3.410157zm0 0" fill="#ffd432"/><path d="m197.816406 303.042969c-6.425781 0-11.636718-5.210938-11.632812-11.636719 0-3.085938 1.226562-6.042969 3.40625-8.226562l46.546875-46.542969c4.542969-4.542969 11.910156-4.542969 16.453125 0 4.542968 4.542969 4.542968 11.910156 0 16.453125l-46.546875 46.546875c-2.179688 2.183593-5.140625 3.410156-8.226563 3.40625zm0 0" fill="#ffd432"/><path d="m453.816406 186.679688c-6.425781 0-11.636718-5.210938-11.636718-11.636719.003906-3.085938 1.226562-6.042969 3.410156-8.226563l46.542968-46.542968c4.542969-4.546876 11.910157-4.550782 16.457032-.007813 4.542968 4.542969 4.546875 11.910156.007812 16.453125-.003906.003906-.007812.007812-.007812.007812l-46.546875 46.546876c-2.179688 2.183593-5.140625 3.410156-8.226563 3.40625zm0 0" fill="#ffd432"/><path d="m325.816406 256.5c0-12.855469-5.210937-23.273438-11.636718-23.273438-6.425782 0-11.636719 10.417969-11.636719 23.273438 0 12.851562 5.210937 23.273438 11.636719 23.273438 6.425781 0 11.636718-10.421876 11.636718-23.273438zm0 0" fill="#ffef7d"/><path d="m232.726562 349.589844c0-12.851563-5.210937-23.273438-11.636718-23.273438-6.425782 0-11.636719 10.421875-11.636719 23.273438 0 12.851562 5.210937 23.273437 11.636719 23.273437 6.425781 0 11.636718-10.421875 11.636718-23.273437zm0 0" fill="#ffef7d"/><path d="m448.335938 152.597656c15.421874 0 27.925781 12.503906 27.925781 27.929688 0 61.695312-50.015625 111.707031-111.707031 111.707031-15.425782 0-27.929688-12.503906-27.929688-27.925781 0-61.695313 50.015625-111.710938 111.710938-111.710938zm0 0" fill="#ffd432"/><path d="m464.050781 179.550781c-5.945312.007813-10.929687 4.5-11.558593 10.414063-3.410157 31.894531-23.828126 59.4375-53.347657 71.984375-.15625.066406-.308593.132812-.460937.207031-.15625.058594-.316406.117188-.472656.183594-10.675782 4.394531-22.113282 6.644531-33.65625 6.621094-.429688.003906-.851563-.054688-1.265626-.164063-6.191406-1.714844-12.601562 1.921875-14.3125 8.117187-1.707031 6.179688 1.90625 12.578126 8.082032 14.304688.484375.132812.976562.257812 1.46875.363281h.003906l.109375.027344h.007813l.050781.011719h.003906l.109375.023437h.007812l.046876.011719h.007812l.054688.011719.050781.011719h.015625l.039062.011718h.011719l.050781.011719h.015625l.035157.007813.019531.003906.035156.007812.019531.003906.070313.011719.023437.007813.082032.011718.042968.007813.023438.007813.027344.003906.023437.003906.027344.003906.039062.007813.03125.003906.027344.007813.019531.003906.03125.003906.015625.003906.066407.011719h.007812l.039062.007813h.007813l.039063.007812h.007812l.070312.011719.011719.003906.035157.003906h.011718l.117188.019531.007812.003907.039063.003906h.007812l.117188.019531.011719.003906.035156.003907h.011718l.117188.019531h.007812l.039063.007812h.007813l.121093.015626.003907.003906.042968.003906.128906.015625.003907.003906c.054687.007813.113281.011719.167969.019531l.007812.003907.039062.003906h.003907l.125.015625h.007812l.164063.019531.011718.003907.039063.003906h.003906l.082031.007812h.003907l.035156.003906.015625.003907.117188.011719h.007812l.035156.003906h.015625l.113281.011718.015626.003907h.03125l.015624.003906.113282.007813.015625.003906.03125.003906h.019531l.109375.011719h.019531l.03125.003906h.015625l.113281.007813.015626.003906h.03125l.023437.003906.058594.003906h.015625l.03125.003906h.019531l.03125.003907h.019531l.058594.003906h.019531l.027344.003906h.023437l.027344.003907h.03125l.039063.003906h.027343l.03125.003906h.050782l.03125.003906h.039062l.03125.003906h.023438l.027344.003907h.066406l.027344.003906h.058593l.03125.003906h.066407l.023437.003907h.054687l.035157.003906h.089843l.035157.003906h.074219l.054687.003906h.074219l.039062.003906h.121094l.019531.003907h.179688l.046875.003906h1.085937l.042969-.003906h.355469l.046875-.003907h.3125l.042968-.003906h.265626l.046874-.003906h.136719l.039063-.003906h.179687l.042969-.003906h.132812l.050782-.003907h.175781l.039063-.003906h.089843l.050781-.003906h.128907l.042969-.003907h.136718l.042969-.003906h.089844l.042969-.003906h.085937l.042969-.003906h.046875l.140625-.003906.089844-.003907.125-.003906h.089843l.035157-.003906h.050781l.035156-.003907h.078125l.0625-.003906h.03125l.058594-.003906h.085937l.046875-.003906h.042969l.042969-.003906h.046875l.039062-.003907h.050781l.042969-.003906h.042969l.042969-.003906h.046875l.039062-.003907h.050782l.035156-.003906h.089844l.050781-.003906h.042969l.046874-.003906.039063-.003906h.046875l.042969-.003907h.046875l.042968-.003906h.042969l.046875-.003906h.042969l.042969-.003907h.042968l.042969-.003906.050781-.003906h.042969l.039063-.003906h.046875l.042969-.003906h.046874l.046876-.003907.039062-.003906h.050781l.035157-.003906h.050781l.039062-.003907.046875-.003906h.042969l.050781-.003906h.035156l.050782-.003906.039062-.003906h.042969l.046875-.003907.085938-.007812h.046874l.039063-.003907.050781-.003906h.039063l.046875-.003906h.039062l.054688-.003906.03125-.003906.074218-.003907h.015626l.066406-.003906.023437-.003906.046875-.003907h.042969l.050781-.003906.035156-.003906.171876-.011719h.054687l.035156-.003906.042969-.003906.046875-.003907h.027344l.0625-.003906.03125-.003906.050781-.003906.042969-.003906h.046875l.128906-.011719.046875-.003907h.039063l.050781-.003906.035156-.003906.050781-.003906.039063-.003906h.050781l.035156-.003907.050782-.003906.039062-.003906.09375-.007813h.039062l.050782-.007812h.039062l.042969-.003906.046875-.003907.039062-.003906.046876-.003906.039062-.003907.046875-.003906h.042969l.046875-.003906.039062-.003906.050781-.003906.035157-.003907.050781-.003906.039062-.003906.050782-.003907h.035156l.054688-.007812h.03125l.058593-.007812h.03125l.058594-.007813h.027344l.058593-.003906.027344-.003907.0625-.003906.027344-.003906.058594-.003906.027344-.003906.058593-.003907.03125-.003906.054688-.003906.03125-.003907.058593-.003906.03125-.003906.058594-.003906.027344-.003906.054688-.003907.035156-.003906.050781-.003906.035156-.003907.054688-.003906.03125-.003906.058593-.003906.03125-.003906.066407-.007813h.019531l.066406-.007813h.019532c.117187-.011718.234374-.023437.351562-.035156h.003906l.171875-.019531h.015625l.070313-.007813h.019531l.066406-.007812.035156-.003906.050782-.003906.039062-.003907.046875-.007812.042969-.003907.046875-.003906.035156-.003906.050781-.003906.035157-.003906.054687-.007813.03125-.003906.050782-.003907.039062-.003906.050781-.003906.035157-.003906.050781-.007813.035156-.003906.054687-.003906.03125-.003907.054688-.007812.03125-.003906.058594-.003906.027344-.003907.058593-.007812.03125-.003907.054688-.003906.03125-.003906.054687-.007812.035156-.003907.050782-.003906.039062-.003906.042969-.007813.042969-.003906.046875-.003906.035156-.003906.054687-.007813.03125-.003906.058594-.007813h.027344l.058594-.007812.03125-.003906.054687-.007813.03125-.003906.054688-.003907.035156-.003906.082031-.011718.058594-.007813.03125-.003906.058594-.007813h.027344l.0625-.007812.023437-.003906.066406-.007813.019531-.003906.070313-.007813.015625-.003906.078125-.007812h.007813l.082031-.011719h.003906c.289063-.035157.582031-.074219.871094-.113281h.007812c.082031-.011719.171875-.023438.253907-.035157l.085937-.011719h.007813l.078124-.011718h.007813l.078125-.011719h.015625l.070313-.011719.019531-.003906.066406-.007812.023437-.003907.0625-.007812.023438-.003907.0625-.007812.023438-.003906.066406-.007813.015625-.003906.070312-.007813.015625-.003906.070313-.011718h.015625l.070312-.011719.019532-.003907.066406-.007812.019531-.003906.066406-.007813.019531-.003906.070313-.011719h.011719l.074218-.011718h.015626l.070312-.011719.011719-.003907.074219-.007812.015624-.003906.070313-.011719h.015625l.066406-.011719.019532-.003906.070312-.007812.015625-.003907.070313-.011719h.019531l.070312-.011718.011719-.003906.070312-.007813.019532-.003906.074218-.011719h.007813l.074219-.011719.011718-.003906.171876-.027344c.492187-.078125.980468-.15625 1.46875-.242187h.003906l.078125-.011719.011719-.003906.078124-.011719h.003907l.082031-.015625h.003906l.164063-.027344.011719-.003906.074218-.011719.011719-.003906.074219-.011719.007812-.003906.078125-.011719.011719-.003906.070312-.011719.019532-.003906.066406-.011719h.015625l.070313-.015625h.015624l.074219-.015625h.007813l.074218-.015625h.011719l.074219-.015625h.015625l.070313-.015625h.011718l.078125-.015625h.007813l.078125-.015625h.007812l.078125-.015625h.003906c.660157-.125 1.3125-.25 1.964844-.382812l.003906-.003906c6.847657-1.398438 13.550782-3.445313 20.015626-6.109376.195312-.082031.386718-.167968.574218-.257812.195313-.070312.390625-.148438.585938-.226562l.171875-.074219.015625-.007813.070312-.03125h.007813c.074219-.035156.148437-.066406.226562-.097656l.003907-.003906c.183593-.078125.363281-.15625.542968-.234375 29.6875-13.007813 52.28125-38.238281 61.953125-69.171875l.003907-.003906c.03125-.109376.066406-.214844.097656-.320313l.003906-.011719c.03125-.105468.066406-.214844.097656-.316406l.003906-.015625c.023438-.078125.046876-.15625.070313-.230469l.003906-.011718.023438-.074219.003906-.015625c.023437-.078125.042969-.148438.066406-.222656l.007813-.023438.019531-.066406.007813-.023438.042968-.144531v-.003906l.019532-.070313.007812-.023437.019531-.066407.007813-.019531c.011718-.042969.023437-.089843.035156-.128906l.007812-.027344.019532-.0625.007812-.035156.019532-.0625.003906-.011719.035156-.125.011719-.039062c.007812-.023438.011719-.039063.019531-.058594l.007812-.039062.027344-.09375.015625-.046876.015625-.054687.011719-.046875.015625-.050781.011719-.050781.027343-.085938.011719-.046875.015625-.054687.011719-.046876.015625-.050781.023438-.074219.015624-.058593.015626-.054688.011718-.046875.015625-.058594.011719-.042968.027344-.089844.011718-.042969.015626-.058593.011718-.042969.015625-.058594.015625-.0625.023438-.070313.007812-.042968.019532-.0625.011718-.039063.023438-.085937.027344-.109375.011718-.039063.019532-.070312.007812-.03125c.007812-.035156.015625-.0625.027344-.097656l.007812-.027344c.003906-.027344.011719-.050782.019532-.074219l.007812-.035156.019531-.074219.007813-.03125c.007812-.03125.015625-.0625.027344-.097656l.007812-.027344c.003906-.027344.011719-.050781.019531-.078125l.007813-.03125.023437-.089844.003907-.011719c.007812-.03125.015624-.066406.027343-.101562l.007813-.027344c.003906-.027344.011718-.054687.019531-.082031l.007813-.023437.054687-.210938.003906-.019531.027344-.109375.027344-.105469.003906-.011719.023437-.097656.003907-.019531c.019531-.070313.039062-.140625.054687-.210938l.003906-.019531.027344-.109375c.019532-.070313.039063-.144531.054688-.214844l.003906-.015625.027344-.101562v-.007813c.019531-.074219.039062-.148437.054687-.222656l.003907-.007813c1.195312-4.875 2.058593-9.824218 2.585937-14.816406.671875-6.394531-3.96875-12.125-10.363281-12.796875-.410156-.042969-.820313-.0625-1.226563-.0625zm0 0" fill="#f4ac03"/><path d="m403.976562 201.609375c-5.746093-5.75-19.722656-1.089844-31.214843 10.402344-11.492188 11.496093-16.152344 25.472656-10.40625 31.21875 5.746093 5.746093 19.722656 1.085937 31.21875-10.40625 11.492187-11.492188 16.148437-25.46875 10.402343-31.214844zm0 0" fill="#ffef7d"/><path d="m429.714844 187.507812c0 6.425782-5.207032 11.636719-11.636719 11.636719-6.425781 0-11.632813-5.210937-11.632813-11.636719 0-6.425781 5.207032-11.636718 11.632813-11.636718 6.429687 0 11.636719 5.210937 11.636719 11.636718zm0 0" fill="#ffef7d"/><path d="m395.632812 314.679688c0-6.425782-15.628906-11.636719-34.90625-11.636719-19.28125 0-34.910156 5.210937-34.910156 11.636719 0 6.425781 15.628906 11.636718 34.910156 11.636718 19.277344 0 34.90625-5.210937 34.90625-11.636718zm0 0" fill="#ffef7d"/><path d="m418.90625 337.953125c0 6.425781-5.207031 11.636719-11.636719 11.636719-6.425781 0-11.636719-5.210938-11.636719-11.636719s5.210938-11.636719 11.636719-11.636719c6.429688 0 11.636719 5.210938 11.636719 11.636719zm0 0" fill="#ffef7d"/><path d="m302.542969 407.769531c0-6.425781-15.628907-11.632812-34.90625-11.632812-19.28125 0-34.910157 5.207031-34.910157 11.632812 0 6.429688 15.628907 11.636719 34.910157 11.636719 19.277343 0 34.90625-5.207031 34.90625-11.636719zm0 0" fill="#ffef7d"/><path d="m325.816406 431.042969c0 6.425781-5.210937 11.636719-11.636718 11.636719-6.425782 0-11.636719-5.210938-11.636719-11.636719s5.210937-11.636719 11.636719-11.636719c6.425781 0 11.636718 5.210938 11.636718 11.636719zm0 0" fill="#ffef7d"/></svg>